<svg width="25" height="25" viewBox="0 0 25 25" fill="none" xmlns="http://www.w3.org/2000/svg">
<path fill-rule="evenodd" clip-rule="evenodd" d="M12.5 5C19.2621 5 24.5898 11.4564 24.813 11.7312C24.934 11.8797 25 12.0654 25 12.2569C25 12.4484 24.934 12.6341 24.813 12.7826C24.5898 13.0574 19.2621 19.5138 12.5 19.5138C5.73788 19.5138 0.410221 13.0574 0.186969 12.7826C0.0660335 12.6341 0 12.4484 0 12.2569C0 12.0654 0.0660335 11.8797 0.186969 11.7312C0.410221 11.4564 5.73788 5 12.5 5ZM9.39814 16.8992C10.3163 17.5127 11.3957 17.8401 12.5 17.8401C13.9802 17.8384 15.3994 17.2497 16.4461 16.203C17.4928 15.1563 18.0815 13.7371 18.0832 12.2569C18.0832 11.1527 17.7557 10.0732 17.1423 9.15505C16.5288 8.2369 15.6568 7.52128 14.6366 7.09871C13.6164 6.67613 12.4938 6.56556 11.4108 6.78099C10.3277 6.99642 9.33291 7.52817 8.55208 8.30899C7.77126 9.08981 7.23951 10.0846 7.02408 11.1677C6.80866 12.2507 6.91922 13.3733 7.3418 14.3935C7.76438 15.4137 8.47999 16.2857 9.39814 16.8992ZM6.16584 8.73555C4.61819 9.72869 3.20097 10.9117 1.94722 12.2569C3.20096 13.6021 4.61818 14.7851 6.16581 15.7782C5.56535 14.7017 5.25014 13.4895 5.25015 12.2569C5.25015 11.0242 5.56537 9.81205 6.16584 8.73555ZM19.7499 12.2569C19.7498 13.4896 19.4346 14.7018 18.8342 15.7783C20.3818 14.7851 21.799 13.6021 23.0528 12.2569C21.799 10.9117 20.3818 9.72874 18.8342 8.73562C19.4347 9.81212 19.7499 11.0243 19.7499 12.2569ZM15.6597 12.2569C15.6597 14.0019 14.2451 15.4166 12.5 15.4166C10.7549 15.4166 9.3403 14.0019 9.3403 12.2569C9.3403 10.5118 10.7549 9.09717 12.5 9.09717C14.2451 9.09717 15.6597 10.5118 15.6597 12.2569Z" fill="#88B840"/>
</svg>
