<svg width="40" height="40" viewBox="0 0 40 40" fill="none" xmlns="http://www.w3.org/2000/svg">
<ellipse cx="20" cy="19.8449" rx="20" ry="19.4533" fill="#4E6297"/>
<path d="M28 14.0444C28 12.6351 26.7565 11.3916 25.3472 11.3916H14.6528C13.2435 11.3916 12 12.6351 12 14.0444V24.7387C12 26.1481 13.2435 27.3916 14.6528 27.3916H20.0414V21.3398H18.0518V18.6869H20.0414V17.6092C20.0414 15.7854 21.3679 14.2102 23.0259 14.2102H25.1814V16.8631H23.0259C22.7772 16.8631 22.5285 17.1118 22.5285 17.6092V18.6869H25.1814V21.3398H22.5285V27.3916H25.3472C26.7565 27.3916 28 26.1481 28 24.7387V14.0444Z" fill="white"/>
</svg>
