<svg width="25" height="25" viewBox="0 0 25 25" fill="none" xmlns="http://www.w3.org/2000/svg">
<path d="M11.7808 22.7076L12.4857 23.4115L13.1923 22.7093C14.36 21.5488 15.5116 20.4934 16.6147 19.4825C16.7753 19.3353 16.9348 19.1891 17.0932 19.0436C18.3311 17.9071 19.5064 16.811 20.5152 15.7055C22.5386 13.4883 24 11.1184 24 8.06284C24 4.83597 21.8725 2.66925 19.2455 2.13177C16.9804 1.66833 14.4048 2.41436 12.4897 4.53343C10.5841 2.41418 8.01325 1.6683 5.75102 2.13183C3.12716 2.66946 1 4.8363 1 8.06284C1 11.1182 2.46127 13.488 4.4811 15.7049C5.48816 16.8102 6.66097 17.9063 7.89501 19.0427C8.04473 19.1805 8.19545 19.3191 8.34709 19.4585C9.45425 20.4762 10.61 21.5386 11.7808 22.7076Z" stroke="#88B840" stroke-width="2"/>
</svg>
