<svg width="40" height="40" viewBox="0 0 40 40" fill="none" xmlns="http://www.w3.org/2000/svg">
<ellipse cx="20" cy="19.8449" rx="20" ry="19.4533" fill="url(#paint0_linear)"/>
<path d="M16.7273 11.3916C14.12 11.3916 12 13.5116 12 16.1189V22.6643C12 25.2716 14.12 27.3916 16.7273 27.3916H23.2727C25.88 27.3916 28 25.2716 28 22.6643V16.1189C28 13.5116 25.88 11.3916 23.2727 11.3916H16.7273ZM24.3636 14.3007C24.7636 14.3007 25.0909 14.628 25.0909 15.028C25.0909 15.428 24.7636 15.7552 24.3636 15.7552C23.9636 15.7552 23.6364 15.428 23.6364 15.028C23.6364 14.628 23.9636 14.3007 24.3636 14.3007ZM20 15.3916C22.2073 15.3916 24 17.1843 24 19.3916C24 21.5989 22.2073 23.3916 20 23.3916C17.7927 23.3916 16 21.5989 16 19.3916C16 17.1843 17.7927 15.3916 20 15.3916ZM20 16.1189C18.1964 16.1189 16.7273 17.588 16.7273 19.3916C16.7273 21.1952 18.1964 22.6643 20 22.6643C21.8036 22.6643 23.2727 21.1952 23.2727 19.3916C23.2727 17.588 21.8036 16.1189 20 16.1189Z" fill="white"/>
<defs>
<linearGradient id="paint0_linear" x1="8.5" y1="34.9212" x2="34.2393" y2="7.45996" gradientUnits="userSpaceOnUse">
<stop stop-color="#EEA054"/>
<stop offset="0.502762" stop-color="#D64763"/>
<stop offset="1" stop-color="#B62A99"/>
</linearGradient>
</defs>
</svg>
