<svg width="25" height="25" viewBox="0 0 25 25" fill="none" xmlns="http://www.w3.org/2000/svg">
<rect x="1" y="1" width="23" height="23.0007" rx="4" stroke="#88B840" stroke-width="2"/>
<path d="M8.32675 15H7.12675L5.67075 13.184V15H4.63875V9.4H5.67075V12.76L7.04675 11H8.27875L6.67075 12.976L8.32675 15ZM10.4568 15.112C9.85414 15.112 9.35014 14.9093 8.94481 14.504C8.54481 14.0987 8.34481 13.5973 8.34481 13C8.34481 12.4027 8.54481 11.9013 8.94481 11.496C9.35014 11.0907 9.85414 10.888 10.4568 10.888C10.8461 10.888 11.2008 10.9813 11.5208 11.168C11.8408 11.3547 12.0835 11.6053 12.2488 11.92L11.3608 12.44C11.2808 12.2747 11.1581 12.144 10.9928 12.048C10.8328 11.952 10.6515 11.904 10.4488 11.904C10.1395 11.904 9.88348 12.008 9.68081 12.216C9.47814 12.4187 9.37681 12.68 9.37681 13C9.37681 13.3147 9.47814 13.576 9.68081 13.784C9.88348 13.9867 10.1395 14.088 10.4488 14.088C10.6568 14.088 10.8408 14.0427 11.0008 13.952C11.1661 13.856 11.2888 13.7253 11.3688 13.56L12.2648 14.072C12.0888 14.3867 11.8408 14.64 11.5208 14.832C11.2008 15.0187 10.8461 15.112 10.4568 15.112ZM15.7881 11H16.8201V15H15.7881V14.528C15.4788 14.9173 15.0441 15.112 14.4841 15.112C13.9508 15.112 13.4921 14.9093 13.1081 14.504C12.7295 14.0933 12.5401 13.592 12.5401 13C12.5401 12.408 12.7295 11.9093 13.1081 11.504C13.4921 11.0933 13.9508 10.888 14.4841 10.888C15.0441 10.888 15.4788 11.0827 15.7881 11.472V11ZM13.8841 13.816C14.0921 14.024 14.3561 14.128 14.6761 14.128C14.9961 14.128 15.2601 14.024 15.4681 13.816C15.6815 13.6027 15.7881 13.3307 15.7881 13C15.7881 12.6693 15.6815 12.4 15.4681 12.192C15.2601 11.9787 14.9961 11.872 14.6761 11.872C14.3561 11.872 14.0921 11.9787 13.8841 12.192C13.6761 12.4 13.5721 12.6693 13.5721 13C13.5721 13.3307 13.6761 13.6027 13.8841 13.816ZM17.7559 15V9.16H18.7879V15H17.7559Z" fill="#88B840"/>
</svg>
