<svg width="27" height="24" viewBox="0 0 27 24" fill="none" xmlns="http://www.w3.org/2000/svg">
<path d="M11.1045 2.51985C10.987 5.65135 10.62 7.48565 8.81877 10.1936C8.51228 9.89254 8.0982 9.70286 7.64506 9.70286H2.56183C1.63779 9.70286 0.867424 10.4818 0.867424 11.4161V21.6954C0.867424 22.6297 1.63779 23.4086 2.56183 23.4086H7.64506C8.12039 23.4086 8.55286 23.2006 8.86291 22.8732C9.08381 23.0502 9.28965 23.2128 9.52477 23.3551C10.0245 23.6574 10.6072 23.8393 11.3516 23.9172C12.8403 24.0731 15.1852 23.9566 20.6355 23.9797C20.8301 23.9794 21.0238 23.9087 21.1738 23.7834C22.2522 22.894 22.7819 21.979 23.0271 21.0083C23.1213 20.9565 23.2057 20.8865 23.2742 20.8031C24.092 19.7697 24.4218 18.5769 24.2802 17.5016C24.3255 17.4644 24.367 17.4224 24.4038 17.3766C25.3522 16.1782 25.6527 14.7603 25.3128 13.5665C25.8689 12.8367 26.1092 11.9798 26.0188 11.1841C25.9079 10.2081 25.2904 9.32875 24.3597 8.91764C24.2542 8.87115 24.1394 8.84671 24.0243 8.84625H17.0702C17.4423 6.03658 17.1583 3.46065 16.1789 1.71679C15.6239 0.728781 14.777 0.149515 13.9285 0.021423C12.4045 -0.167745 11.2505 0.914791 11.1045 2.51985ZM14.7051 2.56446C15.4767 3.93835 15.8377 6.6408 15.2875 9.54225C15.1946 10.0348 15.6211 10.5579 16.1171 10.5595H23.7772C24.0937 10.7384 24.2914 11.0124 24.3332 11.3804C24.3724 11.7253 24.225 12.1413 23.8831 12.5582H20.9179C20.4703 12.5582 20.0587 12.9622 20.0587 13.4148C20.0587 13.8674 20.4703 14.2778 20.9179 14.2714H23.7243C23.7887 14.7561 23.6703 15.3658 23.283 15.9847H20.9179C20.4703 15.9847 20.0587 16.3887 20.0587 16.8413C20.0587 17.2939 20.4703 17.7043 20.9179 17.6979H22.5947C22.6591 18.1826 22.5406 18.7923 22.1534 19.4111H20.9179C20.4703 19.4111 20.0587 19.8151 20.0587 20.2677C20.0587 20.7203 20.4703 21.1307 20.9179 21.1243H21.2091C21.0356 21.5021 20.7601 21.8367 20.2737 22.2665C15.1317 22.2505 12.6808 22.3346 11.5193 22.2129C10.9209 22.1503 10.6848 22.0613 10.3897 21.8828C10.144 21.7342 9.80483 21.45 9.33946 21.0708V12.3887C11.9897 8.80634 12.6581 6.30076 12.7989 2.60015C13.0637 1.1251 14.3281 1.73695 14.7051 2.56446ZM2.56183 11.4161H7.64506C7.62585 14.8193 7.64506 18.2654 7.64506 21.6954H2.56183V11.4161Z" fill="#88B840"/>
</svg>
