<svg width="40" height="39" viewBox="0 0 40 39" fill="none" xmlns="http://www.w3.org/2000/svg">
<ellipse cx="20" cy="19.4533" rx="20" ry="19.4533" fill="#F79A38"/>
<path d="M26.2376 22.1697C26.7623 21.6593 26.8373 20.9302 26.3875 20.2011C26.0127 19.6178 25.3381 19.3261 24.5885 19.472C24.2886 19.5449 23.9888 19.6907 23.6889 19.9094C21.3652 21.4406 18.2168 21.3677 15.893 19.8365C15.7431 19.7636 15.5932 19.6907 15.4432 19.6178C14.6187 19.2532 13.7941 19.3991 13.3444 20.1282C12.8196 20.8573 12.8946 21.6593 13.5692 22.3155C13.7192 22.4614 13.8691 22.5343 13.944 22.6801L14.019 22.753C15.0684 23.555 16.3428 24.0654 17.9919 24.2841L17.0174 25.232C16.1929 26.034 15.2933 26.909 14.4688 27.711C14.2439 27.9297 13.944 28.2943 13.944 28.8047C13.944 29.4609 14.3188 30.1171 14.9935 30.4087C15.2184 30.5546 15.4433 30.5546 15.6681 30.5546C16.0429 30.5546 16.4927 30.4087 16.7925 30.0442C17.917 28.9505 18.8165 28.0756 19.716 27.2006C19.791 27.1277 19.791 27.1277 19.791 27.1277C19.791 27.1277 19.8659 27.1277 19.8659 27.2006C20.4656 27.8568 21.1403 28.4401 21.74 29.0963C22.0398 29.388 22.3397 29.6796 22.6395 29.9713C23.0143 30.3358 23.3141 30.4817 23.7639 30.4817C24.4386 30.5546 25.1882 30.1171 25.488 29.4609C25.7879 28.8776 25.6379 28.1485 25.1132 27.711C24.3636 26.9819 23.614 26.1799 22.7894 25.4507L21.5151 24.2112C22.1897 24.1383 22.9393 23.9925 23.614 23.7009C24.7384 23.3363 25.563 22.8259 26.2376 22.1697Z" fill="white"/>
<path d="M19.791 20.1282C23.0143 20.1282 25.6379 17.6492 25.6379 14.5139C25.6379 12.9828 25.0382 11.5246 23.9138 10.4309C22.7894 9.3372 21.3652 8.75391 19.8659 8.75391C16.6426 8.75391 14.094 11.3058 14.019 14.3681C14.019 15.8993 14.6187 17.2846 15.7431 18.3783C16.7926 19.5449 18.2168 20.1282 19.791 20.1282ZM18.1418 12.837C18.5916 12.3995 19.1913 12.1808 19.791 12.1808C21.1403 12.1808 22.1148 13.2015 22.1148 14.441C22.1148 15.7534 21.0653 16.7013 19.791 16.7013C18.4417 16.7013 17.4672 15.6805 17.4672 14.441C17.4672 13.8577 17.6921 13.2744 18.1418 12.837Z" fill="white"/>
<path d="M26.2376 22.1697C26.7623 21.6593 26.8373 20.9302 26.3875 20.2011C26.0127 19.6178 25.3381 19.3261 24.5885 19.472C24.2886 19.5449 23.9888 19.6907 23.6889 19.9094C21.3652 21.4406 18.2168 21.3677 15.893 19.8365C15.7431 19.7636 15.5932 19.6907 15.4432 19.6178C14.6187 19.2532 13.7941 19.3991 13.3444 20.1282C12.8196 20.8573 12.8946 21.6593 13.5692 22.3155C13.7192 22.4614 13.8691 22.5343 13.944 22.6801L14.019 22.753C15.0684 23.555 16.3428 24.0654 17.9919 24.2841L17.0174 25.232C16.1929 26.034 15.2933 26.909 14.4688 27.711C14.2439 27.9297 13.944 28.2943 13.944 28.8047C13.944 29.4609 14.3188 30.1171 14.9935 30.4087C15.2184 30.5546 15.4433 30.5546 15.6681 30.5546C16.0429 30.5546 16.4927 30.4087 16.7925 30.0442C17.917 28.9505 18.8165 28.0756 19.716 27.2006C19.791 27.1277 19.791 27.1277 19.791 27.1277C19.791 27.1277 19.8659 27.1277 19.8659 27.2006C20.4656 27.8568 21.1403 28.4401 21.74 29.0963C22.0398 29.388 22.3397 29.6796 22.6395 29.9713C23.0143 30.3358 23.3141 30.4817 23.7639 30.4817C24.4386 30.5546 25.1882 30.1171 25.488 29.4609C25.7879 28.8776 25.6379 28.1485 25.1132 27.711C24.3636 26.9819 23.614 26.1799 22.7894 25.4507L21.5151 24.2112C22.1897 24.1383 22.9393 23.9925 23.614 23.7009C24.7384 23.3363 25.563 22.8259 26.2376 22.1697Z" fill="white"/>
</svg>
