<svg width="21" height="26" viewBox="0 0 21 26" fill="none" xmlns="http://www.w3.org/2000/svg">
<path fill-rule="evenodd" clip-rule="evenodd" d="M6.45001 5.95862C6.45001 3.74709 8.25705 1.94309 10.5 1.94309C12.743 1.94309 14.55 3.74709 14.55 5.95862C14.55 8.17015 12.743 9.97414 10.5 9.97414C8.25705 9.97414 6.45001 8.17015 6.45001 5.95862ZM10.5 0.0430908C7.22012 0.0430908 4.55001 2.68538 4.55001 5.95862C4.55001 9.23186 7.22012 11.8741 10.5 11.8741C13.7799 11.8741 16.45 9.23186 16.45 5.95862C16.45 2.68538 13.7799 0.0430908 10.5 0.0430908ZM3.60595 16.7922C3.70554 16.2743 4.15874 15.8999 4.68616 15.8999H16.3139C16.8413 15.8999 17.2945 16.2743 17.3941 16.7922L18.4516 22.2922C18.582 22.9706 18.0622 23.5999 17.3714 23.5999H3.62864C2.93782 23.5999 2.41799 22.9706 2.54842 22.2922L3.60595 16.7922ZM1.74013 16.4335C2.01173 15.0209 3.24773 13.9999 4.68616 13.9999H16.3139C17.7523 13.9999 18.9883 15.0209 19.2599 16.4335L20.3174 21.9335C20.6732 23.7836 19.2554 25.4999 17.3714 25.4999H3.62864C1.7446 25.4999 0.326859 23.7836 0.682602 21.9335L1.74013 16.4335Z" fill="#88B840"/>
</svg>
