<svg width="70" height="68" viewBox="0 0 70 68" fill="none" xmlns="http://www.w3.org/2000/svg">
<ellipse cx="34.6702" cy="33.9479" rx="34.6702" ry="33.9479" fill="white"/>
<g clip-path="url(#clip0)">
<path d="M56.0642 35.8332C56.0704 31.0197 54.4607 26.3452 51.4959 22.5674C47.3616 29.2129 40.9092 30.6314 37.4472 30.8964C37.9903 32.861 37.9528 34.9422 37.3394 36.8857C45.8037 40.3965 48.7338 46.4766 49.218 51.6053C51.3817 49.596 53.1074 47.1567 54.2858 44.4419C55.4643 41.727 56.0698 38.7956 56.0642 35.8332Z" fill="#90B55A"/>
<path d="M29.1411 28.6021C26.7754 26.0201 20.9728 25.1241 15.2354 27.1029C13.7718 30.4113 13.1636 34.0385 13.4676 37.6469C13.7716 41.2553 14.9777 44.7277 16.9739 47.7411C19.0185 47.5518 23.8778 45.9744 27.7613 42.3752C31.858 38.554 31.5419 31.2043 29.1411 28.6021Z" fill="#994A41"/>
<path d="M34.645 26.3053C44.2232 27.9838 49.0725 23.3094 50.5727 21.4594C48.3095 18.9301 45.4807 16.9788 42.3199 15.7666C39.1592 14.5545 35.7571 14.1162 32.3948 14.4881C29.0324 14.8599 25.8062 16.0312 22.9826 17.9051C20.159 19.7791 17.8191 22.302 16.156 25.2655C19.7309 23.6931 30.0115 22.2368 34.645 26.3053ZM34.6601 16.6664C37.9088 17.0804 36.8201 24.1373 34.6852 24.0111C32.8664 23.9076 29.4897 16.0077 34.6601 16.6664Z" fill="#598455"/>
<path d="M34.6676 42.3752C33.5261 43.559 28.6317 49.4094 18.5142 49.783C22.0479 53.9463 27.0299 56.5929 32.44 57.1808C37.8502 57.7687 43.2791 56.2535 47.6149 52.9455C46.0922 47.9153 43.7716 44.2253 34.6676 42.3752Z" fill="#E7A645"/>
<path d="M5.38141 22.453C5.18097 22.367 4.99081 22.3723 4.81092 22.4691C4.63004 22.5633 4.48345 22.7429 4.37116 23.0078C4.27721 23.2294 4.25966 23.4418 4.31849 23.645C4.37632 23.8458 4.4951 23.9848 4.6748 24.0619L4.46343 24.5605C4.26298 24.4745 4.10639 24.3428 3.99366 24.1655C3.88166 23.9865 3.82344 23.7794 3.81898 23.5442C3.8128 23.3083 3.86035 23.0709 3.96163 22.832C4.14072 22.4096 4.37484 22.1223 4.664 21.9702C4.95143 21.8173 5.26362 21.8132 5.60057 21.9578C5.77509 22.0327 5.91131 22.1545 6.00922 22.3234C6.10714 22.4923 6.15683 22.6906 6.15831 22.9184C6.49554 22.5372 6.88446 22.4412 7.32509 22.6303C7.66377 22.7756 7.87889 23.0173 7.97045 23.3553C8.062 23.6934 8.01824 24.0736 7.83916 24.496C7.73274 24.747 7.59179 24.9566 7.41633 25.1248C7.23987 25.2905 7.04534 25.3953 6.83274 25.4391C6.62015 25.4829 6.40067 25.4563 6.17431 25.3591L6.38568 24.8605C6.5844 24.9458 6.78368 24.9382 6.98352 24.8378C7.18163 24.7366 7.33206 24.5648 7.43482 24.3225C7.55005 24.0507 7.57872 23.8072 7.52084 23.5921C7.46369 23.3752 7.33144 23.2223 7.12408 23.1333C6.68173 22.9435 6.3399 23.1211 6.0986 23.6662L5.90043 24.1336L5.49091 23.9579L5.68797 23.493C5.78994 23.2381 5.81402 23.0223 5.76021 22.8457C5.70639 22.6692 5.58013 22.5383 5.38141 22.453Z" fill="#598455"/>
<path d="M11.7042 19.3469L11.4212 19.8054L10.5672 19.2718L9.01913 21.78L9.87547 22.315L9.59104 22.7758L8.35766 22.0085L8.53395 21.7229C8.45775 21.4669 8.30488 21.2062 8.07535 20.9409C7.84521 20.6729 7.56722 20.4217 7.24137 20.1871L5.79855 19.1792L7.08889 17.0887L10.1961 19.03L10.4776 18.574L11.7042 19.3469ZM8.85839 21.1973L9.91022 19.4932L7.18091 17.788L6.45055 18.9713L7.44323 19.6613C7.83066 19.9322 8.13884 20.199 8.36777 20.4618C8.59768 20.7229 8.76122 20.9681 8.85839 21.1973Z" fill="#598455"/>
<path d="M12.2994 14.1341C12.5964 14.4046 12.8106 14.6912 12.9423 14.9939C13.0725 15.2954 13.113 15.5912 13.0638 15.8816C13.0147 16.1719 12.8796 16.4399 12.6586 16.6855C12.4426 16.9254 12.1928 17.0851 11.9093 17.1645C11.6243 17.2426 11.3272 17.2347 11.0178 17.1408C10.7083 17.0442 10.4093 16.8671 10.121 16.6095L9.9024 16.4104C9.611 16.145 9.39942 15.8596 9.26767 15.5542C9.13592 15.2489 9.09457 14.9497 9.14362 14.6567C9.19253 14.361 9.32498 14.0932 9.54094 13.8532C9.76068 13.609 10.013 13.4479 10.298 13.3698C10.5828 13.289 10.8821 13.3001 11.1959 13.4032C11.5083 13.5049 11.8123 13.6905 12.1079 13.9597L12.2994 14.1341ZM11.744 14.3556C11.3846 14.0282 11.0439 13.8499 10.7218 13.8206C10.3983 13.79 10.1192 13.9051 9.88438 14.166C9.65586 14.42 9.57212 14.708 9.63316 15.0302C9.69407 15.3498 9.89332 15.6671 10.2309 15.9822L10.4536 16.1851C10.8019 16.5024 11.1419 16.6788 11.4736 16.7143C11.8051 16.7472 12.087 16.6345 12.3193 16.3764C12.5528 16.1169 12.64 15.8307 12.5807 15.5177C12.5201 15.2035 12.3161 14.8844 11.9688 14.5604L11.744 14.3556Z" fill="#598455"/>
<path d="M14.7611 12.1937L15.7599 13.4534L15.3376 13.7924L12.7862 10.5745L13.9674 9.62647C14.3179 9.34518 14.6634 9.21498 15.0039 9.23584C15.3458 9.25553 15.6342 9.41345 15.869 9.7096C16.1167 10.022 16.2102 10.3411 16.1495 10.6671C16.0891 10.9904 15.8778 11.2974 15.5156 11.5881L14.7611 12.1937ZM14.486 11.8467L15.2449 11.2376C15.4707 11.0564 15.6017 10.8645 15.6378 10.6619C15.6728 10.4578 15.6102 10.2548 15.4502 10.053C15.2983 9.86144 15.1167 9.75646 14.9053 9.73805C14.694 9.71963 14.4817 9.79236 14.2685 9.95624L13.4854 10.5847L14.486 11.8467Z" fill="#598455"/>
<path d="M20.4693 7.96577C20.6656 8.31636 20.7783 8.65603 20.8074 8.9848C20.8356 9.31193 20.7805 9.60539 20.6419 9.86519C20.5033 10.125 20.2903 10.3363 20.0028 10.4992C19.7218 10.6584 19.4342 10.7308 19.1399 10.7163C18.8447 10.7001 18.5651 10.5985 18.3011 10.4114C18.0379 10.2218 17.8102 9.95917 17.618 9.62354L17.4735 9.36551C17.2809 9.02148 17.1704 8.68379 17.142 8.35246C17.1136 8.02113 17.1691 7.72429 17.3084 7.46193C17.4484 7.19701 17.6589 6.98494 17.9398 6.82574C18.2257 6.66376 18.5162 6.59084 18.8114 6.60699C19.1074 6.62057 19.388 6.72592 19.6532 6.92304C19.9176 7.11852 20.1474 7.39073 20.3428 7.73969L20.4693 7.96577ZM19.872 7.99996C19.6345 7.57564 19.3675 7.29858 19.0711 7.16876C18.7737 7.03731 18.4723 7.05812 18.1668 7.23121C17.8695 7.39967 17.6988 7.64635 17.6548 7.97126C17.6115 8.29361 17.7002 8.65768 17.9209 9.06347L18.0681 9.32641C18.2983 9.73761 18.5652 10.0126 18.8688 10.1513C19.1731 10.2875 19.4763 10.2699 19.7785 10.0987C20.0824 9.92652 20.2557 9.68265 20.2985 9.36707C20.3404 9.04985 20.2477 8.68262 20.0206 8.26536L19.872 7.99996Z" fill="#598455"/>
<path d="M23.4931 8.63842L22.127 4.76567L23.3913 4.3142C23.811 4.16435 24.1569 4.13869 24.4289 4.23722C24.7027 4.33513 24.8997 4.55431 25.0198 4.89477C25.0836 5.07564 25.0888 5.25445 25.0355 5.43121C24.9816 5.6062 24.8796 5.76343 24.7294 5.90291C24.959 5.88682 25.1631 5.93973 25.3417 6.06164C25.5214 6.18115 25.6513 6.35439 25.7314 6.58137C25.854 6.92892 25.8379 7.24215 25.683 7.52106C25.5282 7.79996 25.2454 8.01276 24.8345 8.15945L23.4931 8.63842ZM23.3641 6.64495L23.8558 8.03872L24.6978 7.73806C24.9351 7.65333 25.1004 7.52545 25.1936 7.35441C25.2879 7.18096 25.2969 6.98607 25.2206 6.76974C25.0561 6.30338 24.7206 6.16061 24.2141 6.34145L23.3641 6.64495ZM23.2196 6.23534L23.9899 5.96029C24.2131 5.88062 24.3713 5.76121 24.4647 5.60208C24.5599 5.44231 24.5737 5.26667 24.5062 5.07516C24.4311 4.86237 24.3147 4.73023 24.157 4.67874C23.9986 4.62547 23.7928 4.64404 23.5396 4.73446L22.7852 5.00382L23.2196 6.23534Z" fill="#598455"/>
<path d="M30.3397 4.86083C30.4077 5.25524 30.4008 5.61147 30.319 5.92951C30.2369 6.24571 30.0875 6.50244 29.871 6.6997C29.6545 6.89696 29.3841 7.02388 29.0599 7.08047C28.743 7.13578 28.4487 7.10741 28.1769 6.99536C27.9049 6.88146 27.6759 6.69265 27.49 6.42893C27.3056 6.16304 27.1788 5.84059 27.1097 5.46156L27.0596 5.17128C26.9929 4.78424 27.0012 4.43062 27.0845 4.11041C27.1679 3.79021 27.3186 3.53039 27.5366 3.33097C27.7561 3.12938 28.0244 3.00093 28.3413 2.94563C28.6637 2.88936 28.9609 2.91817 29.233 3.03206C29.5065 3.14379 29.7352 3.33645 29.919 3.61003C30.1025 3.88177 30.2281 4.21392 30.2958 4.60649L30.3397 4.86083ZM29.767 4.69308C29.6847 4.21573 29.5258 3.86661 29.2904 3.64571C29.0546 3.42296 28.7644 3.34165 28.4199 3.40178C28.0846 3.4603 27.8423 3.63454 27.693 3.92448C27.5453 4.21226 27.5077 4.58333 27.5803 5.03769L27.6314 5.3335C27.7111 5.79611 27.8706 6.14323 28.1098 6.37487C28.3506 6.60434 28.6413 6.68933 28.9822 6.62985C29.3249 6.57004 29.5687 6.39933 29.7138 6.11772C29.8585 5.83427 29.8934 5.45891 29.8185 4.99166L29.767 4.69308Z" fill="#598455"/>
<path d="M35.2316 4.51893L33.4521 4.54799L33.4756 6.00318L35.5428 5.96942L35.5499 6.41218L32.9413 6.45478L32.875 2.34867L35.4555 2.30652L35.4627 2.7521L33.4237 2.7854L33.445 4.10523L35.2245 4.07617L35.2316 4.51893Z" fill="#598455"/>
<path d="M41.7212 7.25982L41.1879 7.15031L41.9158 3.56165L39.9317 3.15427L39.2038 6.74293L38.6732 6.63399L39.4897 2.6085L42.5378 3.23433L41.7212 7.25982Z" fill="#598455"/>
<path d="M47.5134 4.87679L48.0167 5.07666L46.5168 8.89962L46.0135 8.69975L47.1693 5.75376L44.134 7.95336L43.6281 7.75245L45.1279 3.92949L45.6339 4.1304L44.4781 7.07639L47.5134 4.87679Z" fill="#598455"/>
<path d="M52.6937 8.11265L51.5603 7.43643L49.7016 10.5898L49.239 10.3139L51.0978 7.16045L49.9668 6.48568L50.193 6.10183L52.92 7.7288L52.6937 8.11265Z" fill="#598455"/>
<path d="M53.7568 12.0855L52.4007 11.0148L51.4342 11.623L50.994 11.2754L54.7666 8.99963L55.1401 9.29452L53.8417 13.5239L53.4038 13.1781L53.7568 12.0855ZM52.8049 10.7637L53.9053 11.6326L54.5404 9.67637L52.8049 10.7637Z" fill="#598455"/>
<path d="M57.1582 16.9949L56.7947 16.5909L58.1955 15.3149L56.8131 13.7787L55.4123 15.0548L55.0507 14.6529L58.0813 11.8923L58.4429 12.2942L57.1399 13.4811L58.5223 15.0172L59.8253 13.8303L60.1888 14.2342L57.1582 16.9949Z" fill="#598455"/>
<path d="M63.3034 18.6039L63.5891 19.0639L60.1125 21.2496L59.8267 20.7896L62.5059 19.1053L58.7597 19.0717L58.4725 18.6092L61.9492 16.4236L62.2364 16.886L59.5573 18.5703L63.3034 18.6039Z" fill="#598455"/>
<path d="M63.7347 24.4967L63.0431 22.8568L61.7046 23.4282L62.5079 25.3331L62.1006 25.507L61.0869 23.103L64.8638 21.4908L65.8666 23.8688L65.4568 24.0437L64.6644 22.1648L63.4504 22.683L64.1419 24.3228L63.7347 24.4967Z" fill="#598455"/>
<path d="M9.92476 49.6961L11.9038 48.5154L12.2864 49.1644C12.4134 49.3799 12.4644 49.5682 12.4393 49.7293C12.4148 49.8914 12.3156 50.0243 12.1416 50.1281C12.0492 50.1833 11.9516 50.2058 11.849 50.1958C11.7472 50.1853 11.6501 50.1462 11.5575 50.0785C11.5908 50.2036 11.5836 50.3222 11.5357 50.4343C11.4893 50.5468 11.4081 50.6376 11.2922 50.7068C11.1145 50.8128 10.941 50.8383 10.7714 50.7834C10.6019 50.7285 10.455 50.5956 10.3306 50.3847L9.92476 49.6961ZM11.0047 49.4057L10.2925 49.8306L10.5473 50.2629C10.6191 50.3847 10.7069 50.4619 10.8106 50.4946C10.9159 50.5277 11.0238 50.5112 11.1343 50.4453C11.3726 50.3031 11.4152 50.102 11.2619 49.842L11.0047 49.4057ZM11.2141 49.2808L11.4471 49.6762C11.5147 49.7907 11.5971 49.8651 11.6943 49.8992C11.7921 49.9342 11.89 49.9225 11.9878 49.8641C12.0966 49.7993 12.1567 49.7204 12.1681 49.6276C12.1804 49.5342 12.1483 49.4225 12.0717 49.2925L11.8434 48.9053L11.2141 49.2808Z" fill="#598455"/>
<path d="M12.1708 51.5677L11.4414 52.1022L11.2628 51.8555L13.1258 50.4902L13.6254 51.1802C13.7736 51.385 13.8376 51.5833 13.8172 51.7752C13.7975 51.968 13.7019 52.1272 13.5305 52.2528C13.3496 52.3854 13.1689 52.4306 12.9883 52.3886C12.8092 52.3468 12.6431 52.2201 12.4899 52.0085L12.1708 51.5677ZM12.3717 51.4205L12.6926 51.8638C12.7881 51.9957 12.892 52.0743 13.0043 52.0996C13.1174 52.1242 13.2324 52.0936 13.3493 52.008C13.4602 51.9267 13.5235 51.8266 13.5392 51.7076C13.5548 51.5886 13.5196 51.4669 13.4335 51.3425L13.1023 50.8851L12.3717 51.4205Z" fill="#598455"/>
<path d="M14.4015 54.1701L13.7545 53.409L13.1353 53.9418L13.8869 54.8259L13.6985 54.988L12.7501 53.8723L14.4972 52.369L15.4354 53.4726L15.2458 53.6357L14.5045 52.7637L13.9429 53.2469L14.5899 54.008L14.4015 54.1701Z" fill="#598455"/>
<path d="M16.1391 54.2269L15.4026 56.1188L17.234 55.2624L17.5204 55.5333L15.9468 57.2174L15.726 57.0086L16.3388 56.3527L17.0209 55.6644L15.1969 56.5082L15.0278 56.3483L15.7502 54.4692L15.1139 55.1943L14.5011 55.8501L14.2802 55.6413L15.8539 53.9571L16.1391 54.2269Z" fill="#598455"/>
<path d="M17.9635 58.837L18.5011 58.1183L18.077 57.7972L17.1595 58.2284L16.9007 58.0325L17.9152 57.5695C17.7481 57.2961 17.7549 57.0385 17.9357 56.7968C18.0672 56.621 18.2265 56.5278 18.4136 56.5173C18.6022 56.5065 18.7987 56.5785 19.0032 56.7333L19.5876 57.1757L18.2071 59.0215L17.9635 58.837ZM18.178 56.9802C18.0946 57.0918 18.0621 57.2075 18.0805 57.3273C18.0998 57.4478 18.1709 57.5553 18.294 57.6498L18.6499 57.9192L19.1942 57.1916L18.8496 56.9307C18.7183 56.8313 18.5944 56.7865 18.4778 56.7962C18.362 56.8065 18.2621 56.8678 18.178 56.9802Z" fill="#598455"/>
<path d="M21.5338 61.0894L21.2673 60.9398L22.2639 59.1429L21.2728 58.5865L20.2762 60.3834L20.0112 60.2347L21.1291 58.219L22.6517 59.0737L21.5338 61.0894Z" fill="#598455"/>
<path d="M24.8266 60.0869L25.1059 60.2068L24.2062 62.3288L23.9269 62.209L24.6202 60.5737L22.8839 61.7614L22.6031 61.6409L23.5028 59.5188L23.7835 59.6393L23.0903 61.2746L24.8266 60.0869Z" fill="#598455"/>
<path d="M27.5354 61.3045L26.8297 61.079L26.2111 63.0384L25.9231 62.9464L26.5416 60.9869L25.8374 60.7619L25.9127 60.5234L27.6107 61.0659L27.5354 61.3045Z" fill="#598455"/>
<path d="M28.6781 63.1043L27.7417 62.8809L27.3938 63.4144L27.0899 63.3419L28.4705 61.3091L28.7284 61.3706L29.0563 63.811L28.7539 63.7389L28.6781 63.1043ZM27.8879 62.6595L28.6478 62.8407L28.5136 61.7039L27.8879 62.6595Z" fill="#598455"/>
<path d="M31.7517 62.1361L31.0185 62.0299L30.7275 64.064L30.4283 64.0207L30.7192 61.9866L29.9876 61.8807L30.023 61.6331L31.7871 61.8885L31.7517 62.1361Z" fill="#598455"/>
<path d="M32.592 62.8955L33.165 62.9301C33.4054 62.9478 33.5896 63.0209 33.7175 63.1494C33.8454 63.2778 33.9032 63.4455 33.8909 63.6524C33.8785 63.8603 33.8005 64.0219 33.657 64.1371C33.5135 64.2524 33.324 64.305 33.0884 64.295L32.2066 64.2418L32.3441 61.9368L32.648 61.9552L32.592 62.8955ZM32.577 63.1457L32.5254 64.0116L33.081 64.0452C33.2319 64.0543 33.3515 64.0212 33.4396 63.9461C33.5288 63.8709 33.5775 63.7658 33.5855 63.6307C33.5933 63.5009 33.5587 63.3961 33.482 63.3163C33.4062 63.2365 33.294 63.1911 33.1453 63.18L32.577 63.1457Z" fill="#598455"/>
<path d="M36.4168 63.5784C36.3956 63.8231 36.311 64.0142 36.163 64.1517C36.016 64.2882 35.8169 64.3602 35.5657 64.3678C35.2934 64.376 35.0721 64.285 34.9016 64.0947C34.7322 63.9044 34.6426 63.6457 34.6329 63.3185L34.6263 63.0969C34.6199 62.8827 34.6523 62.6931 34.7234 62.5283C34.7956 62.3635 34.9006 62.2356 35.0384 62.1449C35.1761 62.053 35.3373 62.0043 35.522 61.9988C35.7669 61.9914 35.9652 62.054 36.117 62.1868C36.2688 62.3185 36.3605 62.5048 36.392 62.7457L36.0864 62.7549C36.0546 62.5721 35.9931 62.4409 35.902 62.3612C35.8119 62.2816 35.6878 62.2441 35.5295 62.2489C35.3353 62.2547 35.1849 62.3311 35.0784 62.478C34.9729 62.6248 34.9241 62.8307 34.932 63.0956L34.9387 63.3188C34.9461 63.5689 35.0043 63.7663 35.1132 63.9109C35.2221 64.0555 35.3705 64.1249 35.5583 64.1193C35.7272 64.1142 35.8553 64.0723 35.9428 63.9936C36.0312 63.9138 36.0874 63.7785 36.1113 63.5876L36.4168 63.5784Z" fill="#598455"/>
<path d="M38.6851 64.0715L38.5721 63.181L38.0445 63.2488L37.685 64.2L37.3631 64.2414L37.7702 63.1995C37.4602 63.1212 37.2862 62.9324 37.2482 62.6329C37.2206 62.4152 37.2703 62.2369 37.3974 62.0983C37.5253 61.9584 37.7165 61.8721 37.9709 61.8394L38.6978 61.746L38.9882 64.0325L38.6851 64.0715ZM37.5497 62.5942C37.5672 62.7324 37.6242 62.8379 37.7207 62.9106C37.8182 62.9832 37.944 63.0101 38.098 62.9914L38.5408 62.9345L38.4263 62.033L37.9977 62.0881C37.8344 62.1091 37.7142 62.1639 37.6372 62.2526C37.5612 62.3411 37.532 62.455 37.5497 62.5942Z" fill="#598455"/>
<path d="M42.8057 63.1799L42.5109 63.2601L41.9776 61.2757L40.8808 61.5741L41.4141 63.5585L41.1208 63.6382L40.5226 61.4123L42.2075 60.954L42.8057 63.1799Z" fill="#598455"/>
<path d="M43.9031 61.8688L44.22 62.7137L43.9358 62.8215L43.1265 60.6634L43.9213 60.3617C44.1571 60.2722 44.3642 60.2624 44.5426 60.3324C44.722 60.4021 44.8489 60.5362 44.9234 60.7348C45.002 60.9443 44.997 61.1308 44.9083 61.2942C44.8203 61.4563 44.6545 61.5836 44.4108 61.6761L43.9031 61.8688ZM43.8159 61.6361L44.3265 61.4423C44.4784 61.3846 44.5815 61.3048 44.6357 61.203C44.6896 61.1001 44.6911 60.981 44.6404 60.8456C44.5922 60.7172 44.5132 60.6298 44.4034 60.5834C44.2936 60.537 44.1676 60.5391 44.0254 60.5897L43.4985 60.7897L43.8159 61.6361Z" fill="#598455"/>
<path d="M46.8236 60.9618L45.952 61.3774L46.0126 62.0149L45.7297 62.1499L45.5418 59.6859L45.7819 59.5714L47.5601 61.277L47.2786 61.4112L46.8236 60.9618ZM45.9283 61.1116L46.6356 60.7743L45.8218 59.9681L45.9283 61.1116Z" fill="#598455"/>
<path d="M48.4701 60.7946L47.2952 58.8117L47.9414 58.4241C48.1559 58.2955 48.3434 58.2433 48.5038 58.2677C48.6651 58.2916 48.7974 58.3907 48.9007 58.565C48.9556 58.6576 48.978 58.7555 48.968 58.8587C48.9575 58.961 48.9186 59.0588 48.8512 59.1522C48.9757 59.1181 49.0938 59.1248 49.2054 59.1723C49.3173 59.2184 49.4077 59.2995 49.4766 59.4158C49.582 59.5937 49.6074 59.768 49.5527 59.9386C49.498 60.1093 49.3657 60.2575 49.1557 60.3835L48.4701 60.7946ZM48.1812 59.7108L48.6041 60.4245L49.0344 60.1664C49.1557 60.0937 49.2327 60.0051 49.2652 59.9006C49.2982 59.7947 49.2818 59.6864 49.2162 59.5756C49.0747 59.3368 48.8745 59.2951 48.6157 59.4503L48.1812 59.7108ZM48.057 59.5011L48.4507 59.265C48.5647 59.1966 48.6387 59.1134 48.6727 59.0155C48.7076 58.9171 48.696 58.8188 48.6379 58.7208C48.5733 58.6118 48.4949 58.5518 48.4025 58.5408C48.3095 58.5288 48.1983 58.5617 48.0689 58.6393L47.6833 58.8705L48.057 59.5011Z" fill="#598455"/>
<path d="M50.4403 56.7421L50.6844 56.561L52.0471 58.4199L51.803 58.601L50.7529 57.1685L50.8915 59.2774L50.6462 59.4594L49.2834 57.6005L49.5288 57.4184L50.5789 58.8509L50.4403 56.7421Z" fill="#598455"/>
<path d="M52.7956 54.7284L54.3402 56.4392L54.1158 56.6443L52.7388 55.1191L52.1289 55.6766L52.7106 56.3823C52.904 56.6201 53.0348 56.8123 53.103 56.9587C53.172 57.1044 53.1974 57.2348 53.1792 57.3501C53.1603 57.4646 53.0954 57.5739 52.9846 57.678L52.911 57.7453L52.7445 57.5608L52.7891 57.5157C52.8566 57.444 52.8911 57.3696 52.8925 57.2925C52.8933 57.2146 52.8624 57.1206 52.8 57.0104C52.7375 56.9003 52.6246 56.7461 52.4613 56.5479L51.7474 55.6863L52.7956 54.7284Z" fill="#598455"/>
<path d="M54.2637 54.5755L54.649 54.1513C54.8131 53.9753 54.9848 53.8781 55.1642 53.8595C55.3436 53.8409 55.5095 53.9016 55.6617 54.0416C55.8148 54.1823 55.891 54.3449 55.8904 54.5292C55.8897 54.7135 55.8119 54.8943 55.6567 55.0713L55.0639 55.724L53.3671 54.1641L53.5714 53.9391L54.2637 54.5755ZM54.4478 54.7448L55.0853 55.3308L55.4589 54.9195C55.5603 54.8078 55.6096 54.694 55.6066 54.578C55.6043 54.4612 55.5534 54.3571 55.454 54.2656C55.3584 54.1778 55.2557 54.1386 55.1459 54.148C55.0369 54.1567 54.9315 54.2154 54.8299 54.3241L54.4478 54.7448Z" fill="#598455"/>
<path d="M57.8221 52.3954L57.6395 52.6404L56.7891 51.9986L56.0946 52.9302L56.945 53.5719L56.7634 53.8156L54.9235 52.4273L55.1052 52.1836L55.8962 52.7805L56.5907 51.8489L55.7996 51.252L55.9822 51.0071L57.8221 52.3954Z" fill="#598455"/>
<path d="M58.5128 49.2936C58.7068 49.4093 58.8569 49.5431 58.9633 49.695C59.0688 49.8465 59.1243 50.0049 59.1297 50.1703C59.1351 50.3357 59.0906 50.4984 58.9963 50.6584C58.9041 50.8147 58.7844 50.9307 58.637 51.0061C58.4887 51.0811 58.324 51.11 58.143 51.0929C57.9616 51.0744 57.7771 51.0104 57.5893 50.9008L57.4466 50.8157C57.2563 50.7021 57.1078 50.5687 57.001 50.4153C56.8942 50.2619 56.8379 50.1017 56.8322 49.9349C56.8261 49.7666 56.8691 49.6042 56.9612 49.4479C57.055 49.2888 57.176 49.1718 57.3243 49.0968C57.4722 49.0204 57.6384 48.993 57.8229 49.0146C58.0065 49.0357 58.1948 49.1038 58.3878 49.219L58.5128 49.2936ZM58.2315 49.4778C57.9968 49.3377 57.7891 49.2777 57.6083 49.2976C57.4266 49.317 57.2857 49.4117 57.1855 49.5817C57.088 49.7471 57.0741 49.9152 57.1438 50.0858C57.2131 50.2549 57.3584 50.4074 57.5797 50.5431L57.7252 50.6299C57.9526 50.7656 58.1597 50.8246 58.3465 50.807C58.5329 50.788 58.6756 50.6944 58.7747 50.5262C58.8744 50.3571 58.8904 50.1897 58.8227 50.024C58.7541 49.8578 58.606 49.7049 58.3783 49.5654L58.2315 49.4778Z" fill="#598455"/>
<path fill-rule="evenodd" clip-rule="evenodd" d="M5.79015 37.0144C3.57498 36.3556 2.41345 37.8902 2.74962 39.8437C2.8663 40.6082 3.16618 41.3326 3.62336 41.9543C4.08054 42.5761 4.68128 43.0766 5.3737 43.4126C5.94819 43.6877 6.4424 43.1854 7.05452 43.0567C7.66664 42.928 8.30887 43.1854 8.73534 42.7008C9.23597 42.1132 9.58688 41.4118 9.75778 40.6572C9.92868 39.9026 9.91442 39.1175 9.71624 38.3697C9.22956 36.4465 7.55124 35.5126 5.79015 37.0144Z" fill="#994A41"/>
<path fill-rule="evenodd" clip-rule="evenodd" d="M5.68737 36.8402L4.46313 35.6616L4.77923 35.1164L5.68737 36.8402Z" fill="#598455"/>
<path fill-rule="evenodd" clip-rule="evenodd" d="M5.76023 36.6989C5.63943 36.3524 5.62609 35.9772 5.72196 35.623C5.81783 35.2687 6.01839 34.9521 6.29709 34.7151C6.60714 34.4412 6.96886 34.233 7.36067 34.1029C7.75247 33.9728 8.16632 33.9235 8.57749 33.9579C8.35101 34.6351 7.92918 35.2291 7.36579 35.6641C6.86136 36.0551 6.32416 36.4013 5.76023 36.6989Z" fill="#598455"/>
<path fill-rule="evenodd" clip-rule="evenodd" d="M65.7353 40.5025C65.359 42.2692 63.3871 43.8593 61.4705 43.4429C59.5539 43.0264 58.3974 40.7574 58.7737 39.0058C59.15 37.2542 60.8032 35.5808 62.8929 36.7746C65.2436 36.603 66.1116 38.7382 65.7353 40.5025Z" fill="#E7A645"/>
<path fill-rule="evenodd" clip-rule="evenodd" d="M62.9003 36.4465C62.9652 36.1667 62.9673 35.8759 62.9065 35.5952C62.8458 35.3145 62.7237 35.051 62.5491 34.8236C62.0825 34.1699 60.9837 34.1043 60.9837 34.1043C60.9837 34.1043 60.8257 35.3486 61.6435 35.967C62.0109 36.2397 62.4456 36.4055 62.9003 36.4465Z" fill="#598455"/>
<path fill-rule="evenodd" clip-rule="evenodd" d="M63.0183 36.5096C63.1285 36.1278 63.3671 35.7964 63.6935 35.5721C64.0198 35.3479 64.4134 35.2448 64.807 35.2805C64.807 36.598 63.0183 36.5096 63.0183 36.5096Z" fill="#598455"/>
</g>
<defs>
<clipPath id="clip0">
<rect width="63.2214" height="63.9565" fill="white" transform="translate(2.69189 2.32896)"/>
</clipPath>
</defs>
</svg>
