<svg width="26" height="26" viewBox="0 0 26 26" fill="none" xmlns="http://www.w3.org/2000/svg">
<path d="M4.95013 17.5903C6.44877 18.5917 8.21069 19.1261 10.0131 19.1261C11.2098 19.1261 12.3949 18.8904 13.5005 18.4324C14.6062 17.9745 15.6108 17.3032 16.457 16.457C17.3032 15.6108 17.9745 14.6061 18.4325 13.5005C18.8905 12.3948 19.1262 11.2098 19.1262 10.0131C19.1262 8.21068 18.5917 6.44876 17.5903 4.95012C16.589 3.45149 15.1657 2.28344 13.5005 1.5937C11.8353 0.903949 10.003 0.723479 8.23521 1.07511C6.46745 1.42674 4.84365 2.29467 3.56916 3.56916C2.29468 4.84364 1.42674 6.46744 1.07511 8.2352C0.723479 10.003 0.903949 11.8353 1.5937 13.5005C2.28344 15.1657 3.45149 16.589 4.95013 17.5903ZM5.97168 3.96469C7.16794 3.16538 8.57436 2.73874 10.0131 2.73874C10.9684 2.73874 11.9143 2.9269 12.7969 3.29247C13.6794 3.65804 14.4813 4.19386 15.1568 4.86934C15.8323 5.54483 16.3681 6.34675 16.7337 7.22931C17.0993 8.11187 17.2874 9.05779 17.2874 10.0131C17.2874 11.4518 16.8608 12.8582 16.0615 14.0545C15.2622 15.2507 14.1261 16.1831 12.7969 16.7337C11.4676 17.2843 10.005 17.4283 8.59394 17.1476C7.18285 16.8669 5.88669 16.1741 4.86935 15.1568C3.85202 14.1395 3.1592 12.8433 2.87852 11.4322C2.59784 10.0211 2.7419 8.55852 3.29247 7.22931C3.84305 5.9001 4.77542 4.764 5.97168 3.96469Z" fill="#88B840" stroke="#88B840" stroke-width="0.2"/>
<path d="M23.5357 24.8324L23.5359 24.8326C23.7082 25.0039 23.9412 25.1 24.1841 25.1C24.4269 25.1 24.66 25.0039 24.8322 24.8326L24.8326 24.8322C25.0039 24.66 25.1 24.427 25.1 24.1841C25.1 23.9412 25.0039 23.7082 24.8326 23.5359L24.8324 23.5357L16.4584 15.1617L16.3877 15.091L16.317 15.1617L15.1617 16.3171L15.091 16.3878L15.1617 16.4585L23.5357 24.8324Z" fill="#88B840" stroke="#88B840" stroke-width="0.2"/>
</svg>
