<svg width="27" height="27" viewBox="0 0 27 27" fill="none" xmlns="http://www.w3.org/2000/svg">
<path d="M13.5 0.9C6.55578 0.9 0.9 6.5158 0.9 13.4142C0.9 20.3122 6.55578 25.9284 13.5 25.9284C20.4442 25.9284 26.1 20.3122 26.1 13.4142C26.1 6.5158 20.4442 0.9 13.5 0.9ZM13.5 2.76168C19.4395 2.76168 24.2268 7.51731 24.2268 13.4142C24.2268 19.3111 19.4395 24.0667 13.5 24.0667C7.56051 24.0667 2.77321 19.3111 2.77321 13.4142C2.77321 7.51731 7.56051 2.76168 13.5 2.76168ZM14.1536 4.48476C13.9804 4.31277 13.7416 4.19874 13.4891 4.20378C13.2423 4.20411 13.009 4.31789 12.8397 4.48873C12.6703 4.65966 12.5581 4.89459 12.5632 5.1456V13.4142C12.5632 13.7098 12.6418 13.9475 12.8102 14.1105C12.9781 14.2729 13.2188 14.3452 13.5095 14.3452H20.1629C20.6592 14.3452 21.1096 13.9113 21.1096 13.4142C21.1096 12.917 20.6592 12.4835 20.1629 12.4835H14.4368V5.14561C14.4419 4.89414 14.3267 4.65671 14.1536 4.48476Z" fill="#88B840" stroke="#88B840" stroke-width="0.2"/>
</svg>
