<svg width="40" height="39" viewBox="0 0 40 39" fill="none" xmlns="http://www.w3.org/2000/svg">
<ellipse cx="20" cy="19.4533" rx="20" ry="19.4533" fill="#7294C7"/>
<path d="M29.8049 24.09C29.8049 24.01 29.7214 24.01 29.7214 23.9301C29.3872 23.2905 28.6352 22.4911 27.6325 21.6117C27.1312 21.212 26.8805 20.8922 26.7134 20.7323C26.4628 20.4125 26.4628 20.1727 26.5463 19.8529C26.6299 19.6131 26.9641 19.2133 27.549 18.4938C27.8832 18.0941 28.0503 17.8543 28.301 17.6144C29.5543 16.0155 30.1391 14.9762 29.972 14.4966L29.8885 14.4166C29.8049 14.3367 29.7214 14.2568 29.5543 14.2568C29.3872 14.1768 29.1365 14.1768 28.8858 14.2568H25.7108C25.6272 14.2568 25.6272 14.2568 25.4601 14.2568C25.3766 14.2568 25.293 14.2568 25.293 14.2568H25.2095H25.1259L25.0424 14.3367C24.9588 14.4166 24.9588 14.4166 24.9588 14.4966C24.6246 15.376 24.2068 16.0955 23.789 16.8949C23.5384 17.2947 23.2877 17.6944 23.0371 18.0142C22.7864 18.3339 22.6193 18.5738 22.4522 18.7337C22.2851 18.8936 22.118 18.9735 22.0344 19.1334C21.9509 19.2133 21.7838 19.2933 21.7838 19.2133C21.7002 19.2133 21.6166 19.2133 21.6166 19.1334C21.5331 19.0534 21.4495 18.9735 21.366 18.8936C21.2824 18.8136 21.2824 18.6537 21.1989 18.4938C21.1989 18.3339 21.1989 18.174 21.1989 18.0941C21.1989 18.0142 21.1989 17.7743 21.1989 17.6144C21.1989 17.3746 21.1989 17.2147 21.1989 17.1348C21.1989 16.8949 21.1989 16.5752 21.1989 16.2554C21.1989 15.9356 21.1989 15.6958 21.1989 15.5359C21.1989 15.376 21.1989 15.1361 21.1989 14.9763C21.1989 14.7364 21.1989 14.5765 21.1989 14.4966C21.1989 14.4166 21.1153 14.2567 21.1153 14.1768C21.0318 14.0969 20.9482 14.0169 20.8647 13.937C20.7811 13.857 20.614 13.857 20.5304 13.7771C20.1127 13.6971 19.6114 13.6172 19.0265 13.6172C17.6896 13.6172 16.7705 13.6971 16.4363 13.857C16.2692 13.937 16.1021 14.0169 16.0185 14.1768C15.8514 14.3367 15.8514 14.4166 15.935 14.4166C16.3527 14.4966 16.687 14.6565 16.8541 14.8963L16.9376 15.0562C17.0212 15.1361 17.0212 15.296 17.1047 15.5359C17.1883 15.7757 17.1883 16.0155 17.1883 16.3353C17.1883 16.815 17.1883 17.2947 17.1883 17.6144C17.1883 18.0142 17.1047 18.254 17.1047 18.4938C17.1047 18.7337 17.0212 18.8936 16.9376 18.9735C16.8541 19.1334 16.8541 19.2133 16.7705 19.2133C16.7705 19.2133 16.7705 19.2933 16.687 19.2933C16.6034 19.2933 16.5199 19.3732 16.3527 19.3732C16.2692 19.3732 16.1021 19.2933 16.0185 19.2133C15.8514 19.1334 15.6843 18.9735 15.6008 18.8136C15.4337 18.6537 15.2665 18.4139 15.0994 18.0941C14.9323 17.7743 14.6817 17.4545 14.5146 16.9749L14.3475 16.6551C14.2639 16.4952 14.0968 16.1754 13.9297 15.7757C13.7626 15.376 13.5955 15.0562 13.4284 14.6565C13.3448 14.4966 13.2613 14.4166 13.1777 14.3367H13.0942C13.0942 14.3367 13.0106 14.2568 12.927 14.2568C12.8435 14.2568 12.7599 14.1768 12.6764 14.1768H9.66843C9.33422 14.1768 9.16711 14.2567 9.08356 14.3367L9 14.4166C9 14.4166 9 14.4966 9 14.5765C9 14.6565 9.00001 14.7364 9.08356 14.8963C9.50133 15.8556 10.0026 16.815 10.504 17.7743C11.0053 18.6537 11.5066 19.4532 11.8408 20.0128C12.2586 20.5724 12.5928 21.132 13.0106 21.6117C13.4284 22.0914 13.679 22.4111 13.7626 22.571C13.9297 22.7309 14.0132 22.8109 14.0968 22.8908L14.3475 23.1306C14.5146 23.2905 14.7652 23.5304 15.0994 23.7702C15.4337 24.01 15.8514 24.2499 16.2692 24.4897C16.687 24.7295 17.1883 24.8894 17.6896 25.0493C18.2745 25.2092 18.7758 25.2892 19.2771 25.2092H20.5304C20.7811 25.2092 20.9482 25.1293 21.1153 24.9694L21.1989 24.8894C21.1989 24.8095 21.2824 24.8095 21.2824 24.7295C21.2824 24.6496 21.2824 24.5697 21.2824 24.4098C21.2824 24.09 21.2824 23.8502 21.366 23.6103C21.4495 23.3705 21.4496 23.2106 21.5331 23.0507C21.6167 22.8908 21.7002 22.8109 21.7838 22.7309C21.8673 22.651 21.9509 22.571 21.9509 22.571H22.0344C22.2015 22.4911 22.4522 22.571 22.6193 22.7309C22.87 22.8908 23.1206 23.1306 23.2877 23.3705C23.4548 23.6103 23.7055 23.8501 24.0397 24.1699C24.3739 24.4897 24.6246 24.7295 24.7917 24.8095L25.0424 24.9694C25.2095 25.0493 25.3766 25.1293 25.6272 25.2092C25.8779 25.2892 26.045 25.2892 26.2121 25.2892L29.053 25.2092C29.3036 25.2092 29.5543 25.1293 29.7214 25.0493C29.8885 24.9694 29.972 24.8894 29.972 24.7295C29.972 24.6496 29.972 24.4897 29.972 24.4098C29.8049 24.2499 29.8049 24.1699 29.8049 24.09Z" fill="white"/>
</svg>
