<svg width="87" height="72" viewBox="0 0 87 72" fill="none" xmlns="http://www.w3.org/2000/svg">
<path d="M28.5887 22.4954H27.3964V19.6108H26.3435V26.3176H27.3964V23.4329H28.5887V26.3176H29.6608V19.63H28.5887V22.4954ZM72.916 19.6108H71.8679V26.3176H72.916V19.6108ZM31.3964 19.6108L30.3291 26.3176H31.2907L31.4685 25.106H32.7618L32.9397 26.3176H34.0022L32.9349 19.63L31.3964 19.6108ZM31.608 24.1781L32.0887 20.8127L32.5984 24.1781H31.608ZM40.4879 22.3704L40.108 23.8416V19.6108H39.1465V26.3176H40.2282L41.1032 23.2502L41.5359 21.606V26.3176H42.4975V19.63H41.3388L40.4879 22.3704ZM57.1755 24.606L57.2909 20.5675H58.2043V26.3176H59.2765V19.63H56.3053L56.1322 24.6829C56.1322 25.3079 55.9591 25.3704 55.4832 25.3704V26.332H55.6466C56.6947 26.3272 57.137 25.8512 57.1755 24.6252V24.606ZM71.2621 24.6445V23.7983C71.2621 22.7262 70.7477 22.1444 69.6948 22.1444H69.2141V19.63H68.1612V26.3176H69.7044C70.7477 26.3176 71.2621 25.7358 71.2621 24.6637V24.6445ZM69.2237 23.0771H69.7044C70.041 23.0771 70.2237 23.231 70.2237 23.707V24.7118C70.2237 25.1925 70.041 25.3416 69.7044 25.3416H69.2237V23.0771ZM63.2477 24.6637V23.7983C63.2477 22.7262 62.7332 22.1444 61.6803 22.1444H61.1996V19.63H60.1467V26.3176H61.6948C62.7332 26.3176 63.2477 25.7358 63.2477 24.6637ZM61.1851 23.0771H61.6659C62.0025 23.0771 62.1852 23.231 62.1852 23.707V24.7118C62.1852 25.1925 62.0025 25.3416 61.6659 25.3416H61.1851V23.0771ZM65.0313 23.4329H66.2236V26.3176H67.3006V19.63H66.2285V22.5146H65.0361V19.63H63.9832V26.3176H65.0361L65.0313 23.4329ZM37.9734 19.63H36.9157V25.3608H35.7234V19.63H34.6705V26.3176H37.4253V27.2166H38.4542V25.38H37.9734V19.63ZM53.863 26.3176H54.9207L53.8533 19.63H52.3149L51.2427 26.3176H52.2043L52.3822 25.106H53.6755L53.863 26.3176ZM52.5216 24.1973L53.0312 20.8319L53.536 24.1973H52.5216ZM76.6132 20.5867V19.6252H73.7285V26.3176H76.6132V25.356H74.7958V23.4041H76.2381V22.4425H74.7958V20.5867H76.6132ZM44.8821 19.5531C43.8533 19.5531 43.286 20.1637 43.286 21.2358V24.7118C43.286 25.7839 43.8533 26.3945 44.8821 26.3945C45.911 26.3945 46.4783 25.7839 46.4783 24.7118V21.2358C46.4735 20.1637 45.911 19.5531 44.8773 19.5531H44.8821ZM45.4254 24.7791C45.4254 25.2598 45.2139 25.4425 44.8773 25.4425C44.5408 25.4425 44.334 25.2598 44.334 24.7791V21.154C44.334 20.6733 44.5456 20.4954 44.8773 20.4954C45.209 20.4954 45.4254 20.6733 45.4254 21.154V24.7791ZM48.31 23.4521H49.512V26.3368H50.5793V19.63H49.512V22.5146H48.31V19.63H47.2619V26.3176H48.31V23.4521ZM63.0553 28.6108V27.6493H60.1707V34.3465H63.0553V33.3849H61.2428V31.433H62.6852V30.4714H61.2428V28.6108H63.0553ZM66.2092 34.3465H67.3006L65.8583 30.6397L67.3006 27.6589H66.2525L64.8775 30.5724V27.6589H63.8246V34.3465H64.8775V32.2888L65.1996 31.6782L66.2092 34.3465ZM69.9785 34.3465V28.6108H71.0746V27.6493H67.8294V28.6108H68.9256V34.3465H69.9785ZM74.8583 32.6926V31.8224C74.8583 30.7503 74.3439 30.1685 73.291 30.1685H72.8102V27.6589H71.7573V34.3465H73.3054C74.3439 34.3465 74.8583 33.7647 74.8583 32.6926ZM72.7958 31.1253H73.2766C73.6131 31.1253 73.7958 31.2791 73.7958 31.7551V32.7599C73.7958 33.2407 73.6131 33.3897 73.2766 33.3897H72.7958V31.1253ZM55.5697 30.1637V29.3272C55.5697 28.2599 55.0553 27.6781 54.0024 27.6781H52.4543V34.3465H53.5072V31.832H53.988C55.0553 31.832 55.5697 31.2503 55.5697 30.1782V30.1637ZM53.5072 28.5964H53.988C54.3245 28.5964 54.5024 28.7503 54.5024 29.2262V30.231C54.5024 30.7118 54.3245 30.8609 53.988 30.8609H53.5072V28.5964ZM48.3004 34.3465H49.3485V28.6108H50.5456V34.3465H51.6178V27.6589H48.3004V34.3465ZM75.4593 34.3465H76.5122V27.6589H75.4737L75.4593 34.3465ZM57.8053 27.5772C56.7765 27.5772 56.2139 28.1926 56.2139 29.2647V32.7407C56.2139 33.8128 56.7765 34.4234 57.8053 34.4234C58.8342 34.4234 59.4015 33.8128 59.4015 32.7407V29.2647C59.4015 28.1926 58.839 27.5772 57.8053 27.5772ZM58.3534 32.808C58.3534 33.2888 58.1418 33.4666 57.8053 33.4666C57.4688 33.4666 57.262 33.284 57.262 32.808V29.1926C57.262 28.7118 57.4736 28.5339 57.8053 28.5339C58.137 28.5339 58.3534 28.7166 58.3534 29.1926V32.808ZM74.5122 38.4619L74.1276 39.933V35.683H73.19V42.3706H74.2718L75.1516 39.3032L75.5795 37.659V42.3706H76.541V35.683H75.3872L74.5122 38.4619ZM58.9736 35.6205C57.9447 35.6205 57.3774 36.2311 57.3774 37.3032V40.7792C57.3774 41.8513 57.9447 42.4619 58.9736 42.4619C60.0024 42.4619 60.5698 41.8273 60.5698 40.7648V37.2888C60.5698 36.2167 59.9928 35.6061 58.9592 35.6061L58.9736 35.6205ZM59.5169 40.8513C59.5169 41.3321 59.3101 41.5052 58.9736 41.5052C58.637 41.5052 58.4303 41.3273 58.4303 40.8513V37.2215C58.4303 36.7407 58.6418 36.5628 58.9736 36.5628C59.3053 36.5628 59.5169 36.7455 59.5169 37.2215V40.8513ZM55.1899 35.6974H53.6418V42.3706H54.6899V39.8609H55.1707C56.2188 39.8609 56.738 39.2744 56.738 38.2071V37.3369C56.7236 36.2647 56.2043 35.683 55.1562 35.683L55.1899 35.6974ZM55.7043 38.2888C55.7043 38.7696 55.5216 38.9186 55.1899 38.9186H54.7091V36.6397H55.1899C55.5216 36.6397 55.7043 36.7936 55.7043 37.2696V38.2888ZM62.8871 35.6205C61.8534 35.6205 61.3198 36.2311 61.3198 37.3032V40.7792C61.3198 41.8513 61.8534 42.4619 62.8871 42.4619C63.9207 42.4619 64.4159 41.8273 64.4159 40.7648V39.8754H63.4255V40.8369C63.4255 41.3177 63.214 41.4859 62.8775 41.4859C62.5409 41.4859 62.3342 41.3129 62.3342 40.8369V37.2215C62.3342 36.7407 62.5457 36.5628 62.8775 36.5628C63.2092 36.5628 63.4255 36.7455 63.4255 37.2215V37.9378H64.4159V37.2888C64.4159 36.2167 63.8823 35.6061 62.8534 35.6061L62.8871 35.6205ZM66.7333 35.6205C65.7044 35.6205 65.1659 36.2311 65.1659 37.3032V40.7792C65.1659 41.8513 65.7044 42.4619 66.7333 42.4619C67.7621 42.4619 68.2621 41.8273 68.2621 40.7648V39.8754H67.2717V40.8369C67.2717 41.3177 67.0602 41.4859 66.7237 41.4859C66.3871 41.4859 66.1804 41.3129 66.1804 40.8369V37.2215C66.1804 36.7407 66.3919 36.5628 66.7237 36.5628C67.0554 36.5628 67.2717 36.7455 67.2717 37.2215V37.9378H68.2621V37.2888C68.2621 36.2167 67.7285 35.6061 66.6948 35.6061L66.7333 35.6205ZM70.3294 38.4619L69.9496 39.9042V35.683H69.0121V42.3706H70.0939L70.9689 39.3032L71.4016 37.659V42.3706H72.3631V35.683H71.2045L70.3294 38.4619Z" fill="#202620"/>
<path d="M86.243 1.1584e-06H26.2521C26.1157 -0.000250101 25.9823 0.0403782 25.8692 0.116646C25.7561 0.192914 25.6684 0.301322 25.6175 0.427889L0.275944 70.3419L0.0595962 70.8227C0.0134867 70.9257 -0.00637456 71.0385 0.00178908 71.1511C0.00995272 71.2636 0.0458867 71.3724 0.106376 71.4676C0.166866 71.5629 0.250025 71.6417 0.348415 71.6969C0.446804 71.7522 0.557355 71.7822 0.670178 71.7842C0.752176 71.7835 0.833455 71.7689 0.910565 71.741L78.267 43.5869C78.3983 43.5379 78.5115 43.4499 78.5914 43.3348C78.6713 43.2196 78.7141 43.0828 78.7141 42.9427V27.6733L86.5315 23.2358C86.6441 23.1783 86.7386 23.0909 86.8048 22.9832C86.871 22.8755 86.9061 22.7516 86.9065 22.6252V0.682699C86.9065 0.50492 86.8373 0.334125 86.7134 0.206633C86.5895 0.0791407 86.4207 0.00500902 86.243 1.1584e-06ZM77.7093 42.7167L1.3048 70.5246L25.5454 18.5434H77.7093V42.7167ZM86.4257 22.6252C86.4252 22.659 86.4155 22.6921 86.3977 22.7208C86.38 22.7496 86.3547 22.773 86.3247 22.7887L78.7381 27.0916V18.2165C78.7381 18.0367 78.6667 17.8643 78.5396 17.7372C78.4125 17.61 78.24 17.5386 78.0602 17.5386H25.3338C25.2047 17.5377 25.078 17.5739 24.9689 17.6429C24.8598 17.712 24.7729 17.8109 24.7185 17.928L2.66058 65.2313L26.0839 0.610583C26.0942 0.573718 26.1162 0.541175 26.1465 0.517788C26.1768 0.494402 26.2138 0.481421 26.2521 0.480774H86.243C86.2915 0.480774 86.3379 0.500022 86.3722 0.534284C86.4064 0.568546 86.4257 0.615015 86.4257 0.663468V22.6252Z" fill="#202620"/>
<path d="M42.123 12.591H41.4013V11.5145H38.5174V12.591H37.7837L37.7596 10.907H38.1115C38.2859 10.7386 38.4252 10.494 38.5295 10.1733C38.6337 9.85049 38.7009 9.48562 38.7309 9.07865L38.8452 7.13601H41.6058V10.907H42.1621L42.123 12.591ZM38.9715 10.907H40.848V7.74948H39.5699L39.4978 8.98242C39.4436 9.80639 39.2682 10.4479 38.9715 10.907ZM45.2926 9.5598H43.4943V10.907H45.5963V11.5145H42.7335V7.13601H45.5753V7.74948H43.4943V8.95836H45.2926V9.5598ZM47.2022 7.13601L48.4652 10.492L49.7252 7.13601H50.7085V11.5145H49.9507V10.071L50.0259 8.14041L48.7328 11.5145H48.1885L46.8984 8.14342L46.9736 10.071V11.5145H46.2158V7.13601H47.2022ZM55.105 9.43951C55.105 9.86854 55.0309 10.2454 54.8825 10.5702C54.7342 10.893 54.5216 11.1416 54.245 11.316C53.9703 11.4884 53.6536 11.5746 53.2947 11.5746C52.9399 11.5746 52.6231 11.4884 52.3444 11.316C52.0678 11.1416 51.8533 10.894 51.7009 10.5732C51.5506 10.2525 51.4744 9.88257 51.4724 9.46357V9.21698C51.4724 8.78996 51.5475 8.41306 51.6979 8.08628C51.8503 7.7595 52.0638 7.5099 52.3384 7.33749C52.6151 7.16308 52.9319 7.07587 53.2887 7.07587C53.6456 7.07587 53.9613 7.16207 54.236 7.33448C54.5126 7.50489 54.7261 7.75148 54.8765 8.07425C55.0269 8.39502 55.103 8.76891 55.105 9.19593V9.43951ZM54.3442 9.21097C54.3442 8.72581 54.252 8.35392 54.0676 8.0953C53.8851 7.83668 53.6255 7.70738 53.2887 7.70738C52.9599 7.70738 52.7023 7.83668 52.5159 8.0953C52.3314 8.35191 52.2372 8.71578 52.2332 9.18691V9.43951C52.2332 9.92066 52.3264 10.2925 52.5129 10.5552C52.7013 10.8178 52.9619 10.9491 53.2947 10.9491C53.6315 10.9491 53.8901 10.8208 54.0706 10.5642C54.253 10.3076 54.3442 9.93269 54.3442 9.43951V9.21097ZM58.6625 7.74948H56.6417V11.5145H55.8839V7.13601H58.6625V7.74948ZM60.0579 9.88758V11.5145H59.2971V7.13601H60.972C61.4612 7.13601 61.8491 7.26331 62.1358 7.51792C62.4245 7.77253 62.5689 8.10933 62.5689 8.52834C62.5689 8.95736 62.4275 9.29116 62.1449 9.52973C61.8642 9.7683 61.4702 9.88758 60.963 9.88758H60.0579ZM60.0579 9.27712H60.972C61.2427 9.27712 61.4492 9.21397 61.5915 9.08767C61.7339 8.95936 61.805 8.77492 61.805 8.53435C61.805 8.29778 61.7329 8.10933 61.5885 7.969C61.4442 7.82666 61.2457 7.75349 60.9931 7.74948H60.0579V9.27712ZM65.152 10.495H63.456L63.1011 11.5145H62.3102L63.9642 7.13601H64.6468L66.3038 11.5145H65.5099L65.152 10.495ZM63.6695 9.88157H64.9385L64.304 8.06523L63.6695 9.88157ZM69.1907 7.551H69.2568C69.5936 7.551 69.8994 7.62718 70.174 7.77955C70.4507 7.92991 70.6652 8.14241 70.8176 8.41707C70.9719 8.69173 71.0491 9.00046 71.0491 9.34328C71.0491 9.68409 70.9719 9.99083 70.8176 10.2635C70.6652 10.5341 70.4527 10.7446 70.18 10.895C69.9094 11.0453 69.6057 11.1215 69.2689 11.1235H69.1907V11.6949H68.4599V11.1235H68.3878C68.0489 11.1235 67.7412 11.0484 67.4646 10.898C67.1879 10.7456 66.9734 10.5341 66.821 10.2635C66.6707 9.99283 66.5955 9.6881 66.5955 9.3493C66.5955 9.00648 66.6717 8.69774 66.824 8.42308C66.9764 8.14843 67.1899 7.93492 67.4646 7.78255C67.7392 7.62819 68.0469 7.551 68.3878 7.551H68.4599V6.95558H69.1907V7.551ZM68.3878 8.16146C68.051 8.16146 67.7873 8.26671 67.5969 8.47721C67.4084 8.68772 67.3142 8.97841 67.3142 9.3493C67.3142 9.71016 67.4084 9.99484 67.5969 10.2033C67.7853 10.4098 68.052 10.5131 68.3968 10.5131H68.4599V8.16146H68.3878ZM69.1907 8.16146V10.5131H69.2628C69.5997 10.5131 69.8613 10.4078 70.0477 10.1973C70.2362 9.98682 70.3304 9.70214 70.3304 9.34328C70.3304 8.97641 70.2362 8.68772 70.0477 8.47721C69.8613 8.26671 69.5966 8.16146 69.2538 8.16146H69.1907ZM74.3931 7.13601H75.1539V11.5145H74.3931V8.39602L72.4715 11.5145H71.7107V7.13601H72.4715V10.2575L74.3931 7.13601ZM78.2242 11.5145V9.87856H77.3762L76.5312 11.5145H75.7163L76.6936 9.65302C76.1844 9.41245 75.9298 9.01851 75.9298 8.4712C75.9298 8.0522 76.0671 7.72642 76.3417 7.49387C76.6184 7.25931 77.0033 7.14002 77.4965 7.13601H78.9851V11.5145H78.2242ZM76.6876 8.50428C76.6876 8.75087 76.7567 8.94333 76.8951 9.08166C77.0334 9.21999 77.2409 9.28915 77.5176 9.28915H78.2242V7.74948H77.5176C77.2369 7.74948 77.0284 7.81664 76.8921 7.95096C76.7557 8.08528 76.6876 8.26972 76.6876 8.50428Z" fill="#202620"/>
</svg>
