<svg width="88" height="87" viewBox="0 0 88 87" fill="none" xmlns="http://www.w3.org/2000/svg">
<g clip-path="url(#clip0)">
<path d="M74.2713 45.3488C74.2799 38.8336 72.0398 32.5065 67.9141 27.3931C62.1609 36.388 53.1821 38.3079 48.3645 38.6666C49.1201 41.3258 49.068 44.1427 48.2144 46.7733C59.993 51.5253 64.0705 59.755 64.7443 66.6968C67.7553 63.9771 70.1567 60.6755 71.7965 57.0009C73.4364 53.3262 74.2791 49.3585 74.2713 45.3488Z" fill="#90B55A"/>
<path d="M36.8057 35.5614C33.5137 32.0666 25.439 30.8538 17.455 33.5321C15.4183 38.0102 14.572 42.9196 14.995 47.8037C15.418 52.6878 17.0965 57.3879 19.8743 61.4666C22.7195 61.2104 29.4816 59.0753 34.8857 54.2037C40.5865 49.0316 40.1466 39.0835 36.8057 35.5614Z" fill="#994A41"/>
<path d="M44.4651 32.4526C57.7938 34.7244 64.5419 28.3976 66.6295 25.8935C63.4802 22.47 59.5437 19.8289 55.1453 18.1882C50.7468 16.5475 46.0127 15.9543 41.3337 16.4575C36.6547 16.9608 32.1652 18.5462 28.236 21.0827C24.3068 23.6192 21.0506 27.034 18.7363 31.0451C23.711 28.9168 38.0172 26.9457 44.4651 32.4526ZM44.486 19.406C49.0069 19.9663 47.4918 29.5181 44.5209 29.3473C41.99 29.2072 37.2911 18.5144 44.486 19.406Z" fill="#598455"/>
<path d="M44.4964 54.2041C42.908 55.8063 36.0971 63.7251 22.0178 64.2307C26.9352 69.8659 33.8681 73.4481 41.3967 74.2439C48.9253 75.0397 56.4799 72.9888 62.5136 68.5113C60.3945 61.7027 57.1653 56.7082 44.4964 54.2041Z" fill="#E7A645"/>
<path d="M3.82551 27.183C3.54541 27.0661 3.27882 27.0753 3.02575 27.2107C2.77131 27.3426 2.56411 27.5921 2.40415 27.9591C2.27032 28.2661 2.24365 28.5598 2.32413 28.84C2.40325 29.1168 2.56837 29.3077 2.8195 29.4125L2.51839 30.1033C2.23829 29.9864 2.02009 29.806 1.86381 29.5622C1.70857 29.3159 1.62896 29.0304 1.625 28.7055C1.61863 28.3797 1.68758 28.0512 1.83186 27.7202C2.08696 27.1349 2.4179 26.7358 2.82466 26.5229C3.22901 26.3089 3.66662 26.3002 4.13749 26.4968C4.38137 26.5986 4.57112 26.7656 4.70671 26.998C4.84231 27.2304 4.91004 27.5039 4.90989 27.8185C5.38626 27.2887 5.93231 27.1524 6.54807 27.4094C7.02135 27.6069 7.32051 27.9387 7.44556 28.4049C7.57061 28.871 7.50558 29.3967 7.25047 29.9819C7.09887 30.3297 6.89929 30.6207 6.65172 30.8547C6.40279 31.0853 6.12912 31.2319 5.83072 31.2945C5.53232 31.3571 5.22495 31.3223 4.90862 31.1903L5.20973 30.4995C5.48742 30.6154 5.76681 30.603 6.04788 30.4623C6.32654 30.3207 6.53906 30.0819 6.68543 29.7461C6.84958 29.3695 6.89213 29.0329 6.81309 28.7362C6.73509 28.4372 6.55121 28.2272 6.26145 28.1062C5.64328 27.8482 5.16245 28.0969 4.81894 28.8522L4.53665 29.4998L3.96437 29.261L4.24509 28.6169C4.39049 28.2637 4.42633 27.9654 4.35262 27.722C4.27891 27.4786 4.1032 27.2989 3.82551 27.183Z" fill="#598455"/>
<path d="M12.6927 22.9923L12.291 23.6253L11.0936 22.8976L8.89592 26.3607L10.0967 27.0904L9.69294 27.7267L7.96344 26.6803L8.2137 26.2859C8.10846 25.9342 7.89538 25.5767 7.57446 25.2133C7.25271 24.8463 6.8635 24.5026 6.40684 24.1823L4.38449 22.8064L6.21621 19.9199L10.5733 22.5676L10.9728 21.938L12.6927 22.9923ZM8.67425 25.5602L10.1674 23.2072L6.34029 20.8816L5.3035 22.5153L6.69492 23.4573C7.23796 23.8271 7.66952 24.1919 7.9896 24.5518C8.31109 24.9094 8.53931 25.2455 8.67425 25.5602Z" fill="#598455"/>
<path d="M13.492 15.9859C13.9103 16.3566 14.2121 16.7496 14.3972 17.1648C14.5803 17.5782 14.6369 17.9842 14.567 18.3828C14.497 18.7814 14.3059 19.1494 13.9937 19.4869C13.6886 19.8166 13.336 20.0363 12.9358 20.1458C12.5337 20.2535 12.1145 20.2432 11.6783 20.1149C11.2418 19.9829 10.8205 19.7404 10.4142 19.3874L10.1063 19.1146C9.69571 18.7508 9.3978 18.3595 9.21253 17.9407C9.02726 17.5218 8.9695 17.1113 9.03926 16.7091C9.10883 16.3032 9.29617 15.9353 9.60128 15.6056C9.91172 15.2701 10.268 15.0484 10.6701 14.9406C11.072 14.8292 11.4942 14.844 11.9367 14.9848C12.3772 15.1239 12.8057 15.3779 13.2222 15.7469L13.492 15.9859ZM12.7081 16.291C12.2017 15.8424 11.7214 15.5982 11.2671 15.5586C10.8109 15.5172 10.4169 15.6758 10.0852 16.0343C9.7623 16.3832 9.64362 16.7788 9.72911 17.2208C9.81442 17.6593 10.0949 18.0944 10.5705 18.5263L10.8843 18.8043C11.375 19.2391 11.8543 19.4806 12.3221 19.5287C12.7897 19.5732 13.1876 19.418 13.5157 19.0633C13.8457 18.7067 13.9692 18.3137 13.8862 17.8843C13.8012 17.4532 13.5141 17.0156 13.0248 16.5716L12.7081 16.291Z" fill="#598455"/>
<path d="M16.8835 13.4364L18.2971 15.1705L17.7031 15.6342L14.0923 11.2048L15.7537 9.90783C16.2467 9.52301 16.7332 9.34564 17.2134 9.3757C17.6956 9.40416 18.1028 9.62221 18.4352 10.0299C18.7857 10.4598 18.9188 10.8985 18.8346 11.3459C18.7508 11.7896 18.4542 12.2103 17.9447 12.608L16.8835 13.4364ZM16.4942 12.9588L17.5616 12.1256C17.8792 11.8776 18.0631 11.6146 18.1132 11.3366C18.1616 11.0565 18.0726 10.7775 17.8461 10.4997C17.6312 10.236 17.3747 10.0911 17.0766 10.0649C16.7785 10.0388 16.4795 10.1378 16.1796 10.3619L15.0782 11.2217L16.4942 12.9588Z" fill="#598455"/>
<path d="M24.8332 7.72703C25.1121 8.21161 25.2734 8.68046 25.3172 9.13357C25.3597 9.58441 25.2846 9.98818 25.0921 10.3449C24.8995 10.7015 24.6019 10.9909 24.1992 11.2128C23.8056 11.4297 23.4019 11.5269 22.9881 11.5045C22.573 11.4797 22.1791 11.3374 21.8065 11.0775C21.4349 10.814 21.1125 10.4503 20.8394 9.98636L20.6342 9.62971C20.3605 9.15418 20.2022 8.6881 20.1595 8.23147C20.1167 7.77483 20.192 7.36641 20.3856 7.00621C20.5801 6.64247 20.8742 6.35215 21.2677 6.13524C21.6682 5.91454 22.0759 5.81656 22.491 5.84131C22.9071 5.86253 23.3025 6.01002 23.677 6.28379C24.0503 6.5553 24.3757 6.93222 24.6533 7.41454L24.8332 7.72703ZM23.9939 7.76906C23.6563 7.18257 23.2786 6.79866 22.8608 6.61733C22.4417 6.43373 22.0182 6.45985 21.5903 6.69568C21.1738 6.92521 20.9361 7.26356 20.877 7.71073C20.8189 8.15438 20.9467 8.65662 21.2604 9.21745L21.4696 9.58089C21.7967 10.1493 22.1742 10.5303 22.6022 10.7239C23.0311 10.9141 23.4572 10.8925 23.8805 10.6592C24.3061 10.4246 24.5476 10.0901 24.6051 9.65581C24.6612 9.21922 24.5279 8.71258 24.205 8.13589L23.9939 7.76906Z" fill="#598455"/>
<path d="M29.02 8.73748L27.0717 3.36519L28.8365 2.75225C29.4223 2.54879 29.906 2.51652 30.2876 2.65543C30.6716 2.79348 30.9493 3.09865 31.1206 3.57094C31.2116 3.82184 31.2206 4.06935 31.1477 4.31347C31.074 4.55513 30.9327 4.77177 30.7239 4.96339C31.045 4.94326 31.331 5.0184 31.5821 5.18879C31.8347 5.35586 32.0181 5.59682 32.1323 5.91168C32.3072 6.39381 32.2876 6.82714 32.0736 7.21167C31.8596 7.59619 31.4659 7.88804 30.8924 8.0872L29.02 8.73748ZM28.8206 5.97752L29.5218 7.91095L30.6972 7.50275C31.0284 7.38772 31.2584 7.21229 31.3871 6.97646C31.5175 6.73731 31.5283 6.46769 31.4194 6.16759C31.1848 5.52065 30.714 5.31994 30.0071 5.56546L28.8206 5.97752ZM28.6145 5.40929L29.6898 5.03586C30.0012 4.9277 30.2215 4.76394 30.3507 4.54458C30.4824 4.32437 30.5 4.08143 30.4037 3.81577C30.2966 3.52059 30.1325 3.33663 29.9113 3.26389C29.6892 3.18869 29.4014 3.21247 29.0479 3.33523L27.995 3.70093L28.6145 5.40929Z" fill="#598455"/>
<path d="M38.505 3.58011C38.6022 4.12851 38.5948 4.62341 38.4828 5.06479C38.3703 5.50361 38.1637 5.85939 37.8632 6.13215C37.5627 6.40491 37.1866 6.57961 36.735 6.65627C36.2937 6.73119 35.8833 6.68998 35.5039 6.53265C35.124 6.37276 34.8037 6.10904 34.5429 5.74151C34.2843 5.37097 34.1056 4.92218 34.0069 4.39515L33.9354 3.99154C33.84 3.45339 33.8494 2.96212 33.9635 2.51774C34.0777 2.07336 34.2861 1.71329 34.5888 1.43754C34.8935 1.15879 35.2666 0.981954 35.7079 0.907037C36.1569 0.830813 36.5714 0.872647 36.9513 1.03254C37.3333 1.18944 37.6532 1.45849 37.9111 1.83972C38.1685 2.21838 38.3456 2.68063 38.4423 3.22647L38.505 3.58011ZM37.7059 3.34357C37.5882 2.67985 37.3646 2.19382 37.0351 1.88547C36.7051 1.57456 36.3002 1.45984 35.8203 1.54129C35.3534 1.62056 35.0167 1.86117 34.8105 2.26311C34.6063 2.66205 34.5562 3.17738 34.6603 3.80909L34.7332 4.22039C34.8472 4.86361 35.0716 5.34687 35.4065 5.67015C35.7434 5.99044 36.1492 6.11029 36.6239 6.02971C37.1012 5.94869 37.44 5.713 37.6404 5.32261C37.8403 4.92967 37.8867 4.40837 37.7795 3.75872L37.7059 3.34357Z" fill="#598455"/>
<path d="M45.2837 3.12421L42.8074 3.16354L42.841 5.18853L45.7176 5.14283L45.7278 5.75896L42.0977 5.81663L42.0029 0.102717L45.5938 0.0456756L45.604 0.665729L42.7667 0.710801L42.7971 2.54741L45.2735 2.50808L45.2837 3.12421Z" fill="#598455"/>
<path d="M54.2716 6.89504L53.5287 6.74666L54.569 1.75841L51.8049 1.2064L50.7646 6.19465L50.0254 6.04703L51.1924 0.451583L55.4386 1.29959L54.2716 6.89504Z" fill="#598455"/>
<path d="M62.3601 3.52075L63.0631 3.79228L60.9254 9.09208L60.2224 8.82055L61.8697 4.7365L57.5972 7.80656L56.8906 7.53361L59.0283 2.23381L59.735 2.50675L58.0876 6.5908L62.3601 3.52075Z" fill="#598455"/>
<path d="M69.5679 7.91291L67.9794 6.99108L65.3395 11.3474L64.6912 10.9712L67.3311 6.61486L65.746 5.695L66.0674 5.16473L69.8892 7.38264L69.5679 7.91291Z" fill="#598455"/>
<path d="M71.0079 13.3348L69.101 11.8704L67.7357 12.7099L67.1167 12.2345L72.4453 9.09238L72.9705 9.49572L71.1212 15.31L70.5054 14.837L71.0079 13.3348ZM69.672 11.5238L71.2194 12.7122L72.1235 10.0228L69.672 11.5238Z" fill="#598455"/>
<path d="M75.7494 19.9908L75.2358 19.4358L77.2095 17.6871L75.2564 15.5762L73.2828 17.3249L72.7719 16.7727L77.0417 12.9896L77.5526 13.5417L75.7168 15.1683L77.6699 17.2792L79.5057 15.6527L80.0192 16.2077L75.7494 19.9908Z" fill="#598455"/>
<path d="M84.3463 22.1262L84.7519 22.7614L79.8764 25.7426L79.4709 25.1075L83.2279 22.8101L77.9563 22.7356L77.5486 22.0972L82.4241 19.1159L82.8317 19.7544L79.0747 22.0517L84.3463 22.1262Z" fill="#598455"/>
<path d="M84.9257 30.1107L83.9406 27.8384L82.0701 28.615L83.2145 31.2546L82.6454 31.4909L81.2013 28.1599L86.4791 25.9686L87.9077 29.2636L87.3349 29.5014L86.2062 26.8978L84.5097 27.6021L85.4948 29.8744L84.9257 30.1107Z" fill="#598455"/>
<path d="M10.1945 64.0467L12.9682 62.4371L13.5116 63.3337C13.6919 63.6314 13.7651 63.891 13.7312 64.1127C13.6981 64.3356 13.5596 64.5178 13.3158 64.6593C13.1862 64.7345 13.0492 64.7648 12.9047 64.7502C12.7615 64.7348 12.6246 64.6802 12.4939 64.5863C12.5418 64.7588 12.5325 64.922 12.4662 65.076C12.4018 65.2304 12.2884 65.3548 12.1258 65.4492C11.8769 65.5936 11.633 65.6274 11.3941 65.5504C11.1552 65.4735 10.9475 65.2894 10.7709 64.998L10.1945 64.0467ZM11.711 63.6555L10.7127 64.2348L11.0746 64.832C11.1766 65.0003 11.3007 65.1073 11.4469 65.1532C11.5952 65.1995 11.7468 65.1777 11.9017 65.0878C12.2357 64.894 12.2939 64.6175 12.0762 64.2583L11.711 63.6555ZM12.0043 63.4853L12.3354 64.0316C12.4313 64.1898 12.5478 64.2928 12.6848 64.3405C12.8227 64.3895 12.9602 64.3743 13.0974 64.2947C13.2498 64.2062 13.3336 64.0981 13.3489 63.9704C13.3655 63.842 13.3194 63.688 13.2106 63.5084L12.8864 62.9734L12.0043 63.4853Z" fill="#598455"/>
<path d="M13.3187 66.5724L12.294 67.3028L12.041 66.9628L14.6583 65.0972L15.3661 66.0481C15.5761 66.3303 15.6673 66.6031 15.6398 66.8667C15.6131 67.1315 15.4793 67.3497 15.2384 67.5214C14.9843 67.7025 14.73 67.7637 14.4753 67.7049C14.2227 67.6465 13.9878 67.4714 13.7708 67.1798L13.3187 66.5724ZM13.6009 66.3713L14.0556 66.9822C14.191 67.164 14.3378 67.2726 14.4961 67.3079C14.6557 67.3423 14.8175 67.301 14.9817 67.184C15.1375 67.0729 15.2261 66.9357 15.2475 66.7723C15.269 66.6088 15.2186 66.4414 15.0966 66.2701L14.6273 65.6396L13.6009 66.3713Z" fill="#598455"/>
<path d="M16.4277 70.102L15.513 69.0553L14.6413 69.7849L15.7039 71.0007L15.4387 71.2227L14.0977 69.6884L16.5574 67.6298L17.8838 69.1475L17.6169 69.3709L16.5688 68.1717L15.7782 68.8334L16.6929 69.88L16.4277 70.102Z" fill="#598455"/>
<path d="M18.8326 70.1378L17.7913 72.7351L20.376 71.5576L20.7797 71.929L18.5577 74.2421L18.2464 73.9557L19.1117 73.055L20.0749 72.1096L17.5006 73.2697L17.2623 73.0505L18.2837 70.4708L17.3851 71.4666L16.5198 72.3674L16.2085 72.081L18.4305 69.7679L18.8326 70.1378Z" fill="#598455"/>
<path d="M21.3299 76.4163L22.0913 75.4261L21.4953 74.9873L20.2 75.5843L19.8363 75.3165L21.2684 74.6753C21.0343 74.3005 21.0453 73.9466 21.3013 73.6136C21.4875 73.3715 21.7125 73.2427 21.9763 73.2272C22.2421 73.2115 22.5188 73.3094 22.8061 73.521L23.6274 74.1257L21.6723 76.6684L21.3299 76.4163ZM21.6419 73.8644C21.5237 74.0181 21.4773 74.1772 21.5027 74.3417C21.5292 74.5072 21.629 74.6545 21.8019 74.7836L22.3021 75.152L23.0729 74.1496L22.5886 73.793C22.4042 73.6571 22.2297 73.5962 22.0653 73.61C21.9021 73.6248 21.761 73.7096 21.6419 73.8644Z" fill="#598455"/>
<path d="M26.2792 79.4668L25.906 79.2631L27.3223 76.7791L25.9341 76.0211L24.5178 78.5051L24.1466 78.3024L25.7353 75.5161L27.8679 76.6805L26.2792 79.4668Z" fill="#598455"/>
<path d="M30.8721 78.0415L31.2624 78.2044L29.9809 81.1447L29.5905 80.9818L30.5781 78.716L28.1329 80.3734L27.7406 80.2096L29.0222 77.2693L29.4145 77.4331L28.4269 79.6989L30.8721 78.0415Z" fill="#598455"/>
<path d="M34.6216 79.692L33.6371 79.386L32.7544 82.1057L32.3526 81.9809L33.2353 79.2611L32.2529 78.9558L32.3604 78.6248L34.7291 79.3609L34.6216 79.692Z" fill="#598455"/>
<path d="M36.1854 82.1766L34.8805 81.8738L34.3909 82.6169L33.9673 82.5186L35.9097 79.687L36.2691 79.7704L36.7077 83.1545L36.2862 83.0567L36.1854 82.1766ZM35.0863 81.5654L36.1452 81.8111L35.9668 80.2345L35.0863 81.5654Z" fill="#598455"/>
<path d="M40.4604 80.8127L39.4395 80.6689L39.0234 83.4979L38.6068 83.4392L39.0229 80.6103L38.0041 80.4668L38.0548 80.1224L40.511 80.4684L40.4604 80.8127Z" fill="#598455"/>
<path d="M41.6149 81.8662L42.4124 81.9131C42.747 81.9371 43.0032 82.0384 43.1809 82.2168C43.3586 82.3953 43.4387 82.6284 43.421 82.9162C43.4033 83.2055 43.2944 83.4305 43.0944 83.5912C42.8944 83.7519 42.6305 83.8256 42.3026 83.8122L41.0755 83.7401L41.2721 80.533L41.6951 80.5578L41.6149 81.8662ZM41.5936 82.2143L41.5197 83.4192L42.293 83.4646C42.503 83.4769 42.6694 83.4307 42.7923 83.3259C42.9167 83.2212 42.9846 83.0748 42.9961 82.8869C43.0072 82.7062 42.9594 82.5605 42.8527 82.4496C42.7474 82.3387 42.5914 82.2758 42.3845 82.2607L41.5936 82.2143Z" fill="#598455"/>
<path d="M46.928 82.8143C46.8988 83.1547 46.7812 83.4205 46.5754 83.6117C46.371 83.8015 46.0941 83.9015 45.7445 83.9117C45.3656 83.9229 45.0575 83.796 44.82 83.531C44.584 83.266 44.4591 82.9059 44.4451 82.4506L44.4357 82.1422C44.4265 81.8441 44.4714 81.5804 44.5702 81.3511C44.6705 81.1218 44.8164 80.9441 45.008 80.8179C45.1996 80.6903 45.4239 80.6227 45.681 80.6152C46.0217 80.6052 46.2978 80.6926 46.5092 80.8775C46.7207 81.0609 46.8484 81.3202 46.8925 81.6556L46.4673 81.668C46.4228 81.4136 46.3371 81.2309 46.2102 81.12C46.0848 81.009 45.9119 80.9567 45.6916 80.9632C45.4214 80.9711 45.2122 81.0772 45.0642 81.2815C44.9175 81.4857 44.8499 81.7721 44.8612 82.1407L44.8707 82.4513C44.8814 82.7994 44.9626 83.0741 45.1143 83.2754C45.266 83.4767 45.4725 83.5736 45.7339 83.5659C45.9689 83.559 46.1472 83.5008 46.2688 83.3914C46.3918 83.2805 46.4698 83.0923 46.5028 82.8267L46.928 82.8143Z" fill="#598455"/>
<path d="M50.08 83.5088L49.9183 82.2703L49.1838 82.3621L48.6875 83.6829L48.2394 83.7389L48.8015 82.2922C48.3694 82.182 48.1262 81.9186 48.0718 81.5021C48.0323 81.1992 48.1007 80.9516 48.277 80.7594C48.4546 80.5655 48.7205 80.4464 49.0746 80.4021L50.0866 80.2756L50.5018 83.4561L50.08 83.5088ZM48.4915 81.4496C48.5166 81.6418 48.5965 81.7887 48.7312 81.8903C48.8674 81.9917 49.0427 82.0297 49.2571 82.0044L49.8735 81.9273L49.7098 80.6735L49.1131 80.7481C48.8857 80.7765 48.7186 80.8522 48.6117 80.975C48.5063 81.0977 48.4662 81.2559 48.4915 81.4496Z" fill="#598455"/>
<path d="M55.808 82.2968L55.397 82.4056L54.6355 79.6494L53.1064 80.054L53.8679 82.8101L53.459 82.9183L52.6048 79.8267L54.9538 79.2052L55.808 82.2968Z" fill="#598455"/>
<path d="M57.3131 80.4903L57.7648 81.6619L57.368 81.8084L56.2142 78.8156L57.3239 78.4059C57.6532 78.2844 57.9431 78.2728 58.1935 78.3714C58.4453 78.4694 58.6243 78.6561 58.7305 78.9315C58.8425 79.222 58.8373 79.4799 58.7148 79.7051C58.5932 79.9285 58.3622 80.103 58.0219 80.2286L57.3131 80.4903ZM57.1887 80.1676L57.9016 79.9044C58.1138 79.826 58.2573 79.7167 58.3323 79.5763C58.4067 79.4346 58.4077 79.2698 58.3353 79.0821C58.2666 78.904 58.1552 78.7823 58.001 78.7171C57.8469 78.652 57.6705 78.6537 57.4719 78.7223L56.7362 78.9939L57.1887 80.1676Z" fill="#598455"/>
<path d="M61.3784 79.2669L60.1593 79.8324L60.2505 80.7127L59.8548 80.8963L59.5677 77.4942L59.9035 77.3385L62.4148 79.7089L62.0211 79.8915L61.3784 79.2669ZM60.1235 79.4654L61.1127 79.0065L59.9632 77.8863L60.1235 79.4654Z" fill="#598455"/>
<path d="M63.6589 79.0566L61.9902 76.3174L62.896 75.789C63.1966 75.6136 63.4599 75.5434 63.6857 75.5782C63.9128 75.6123 64.0997 75.7498 64.2464 75.9906C64.3243 76.1186 64.3567 76.2535 64.3435 76.3955C64.3295 76.5363 64.2755 76.6706 64.1815 76.7985C64.3564 76.7526 64.5225 76.7628 64.6798 76.8291C64.8376 76.8935 64.9654 77.0059 65.0632 77.1664C65.213 77.4123 65.2501 77.6524 65.1746 77.8869C65.099 78.1213 64.9141 78.3244 64.6198 78.4961L63.6589 79.0566ZM63.2438 77.5623L63.8443 78.5481L64.4475 78.1962C64.6175 78.0971 64.725 77.9757 64.7699 77.8322C64.8154 77.6867 64.7915 77.5374 64.6983 77.3844C64.4974 77.0546 64.2155 76.9955 63.8527 77.2071L63.2438 77.5623ZM63.0673 77.2726L63.6191 76.9507C63.7789 76.8574 63.8824 76.7436 63.9294 76.609C63.9776 76.4738 63.9605 76.3384 63.878 76.203C63.7863 76.0525 63.6754 75.9692 63.5454 75.9533C63.4146 75.9361 63.2585 75.9805 63.0771 76.0863L62.5367 76.4015L63.0673 77.2726Z" fill="#598455"/>
<path d="M66.3691 73.5109L66.7121 73.2633L68.6426 75.8247L68.2996 76.0723L66.812 74.0984L67.0189 76.9966L66.6741 77.2455L64.7436 74.684L65.0884 74.4352L66.576 76.4091L66.3691 73.5109Z" fill="#598455"/>
<path d="M69.6395 70.7837L71.8216 73.1345L71.5054 73.4155L69.5602 71.3198L68.7007 72.0838L69.5226 73.0534C69.7959 73.3802 69.9808 73.6441 70.0773 73.8452C70.1748 74.0453 70.2109 74.2244 70.1854 74.3826C70.159 74.5397 70.0677 74.6896 69.9116 74.8322L69.8079 74.9244L69.5726 74.6709L69.6355 74.6092C69.7306 74.5109 69.7791 74.4088 69.781 74.303C69.7819 74.1961 69.7382 74.067 69.6499 73.9157C69.5615 73.7644 69.402 73.5526 69.1713 73.2803L68.1626 72.0965L69.6395 70.7837Z" fill="#598455"/>
<path d="M71.6644 70.6112L72.2087 70.0283C72.4405 69.7865 72.6829 69.6527 72.936 69.6269C73.1891 69.6011 73.423 69.6841 73.6375 69.876C73.8532 70.0689 73.9604 70.2918 73.9592 70.5448C73.958 70.7978 73.8479 71.0459 73.6287 71.2892L72.7913 72.1861L70.4003 70.0481L70.689 69.7389L71.6644 70.6112ZM71.9239 70.8432L72.8221 71.6464L73.3499 71.0812C73.4932 70.9277 73.5628 70.7714 73.5588 70.6122C73.5558 70.4519 73.4842 70.3091 73.3441 70.1838C73.2094 70.0634 73.0647 70.0098 72.9098 70.0229C72.7559 70.035 72.6071 70.1157 72.4636 70.2651L71.9239 70.8432Z" fill="#598455"/>
<path d="M76.6401 67.6479L76.3815 67.9854L75.1863 67.1082L74.2027 68.3915L75.3979 69.2687L75.1406 69.6044L72.5549 67.7067L72.8121 67.371L73.9239 68.1869L74.9075 66.9035L73.7957 66.0876L74.0544 65.7501L76.6401 67.6479Z" fill="#598455"/>
<path d="M77.5737 63.441C77.8455 63.5987 78.0556 63.7818 78.204 63.9901C78.3511 64.1977 78.4278 64.4154 78.434 64.643C78.4403 64.8707 78.3764 65.095 78.2425 65.3161C78.1116 65.5321 77.9422 65.6926 77.7343 65.7977C77.5251 65.9021 77.2933 65.9433 77.0389 65.9212C76.7839 65.8972 76.5249 65.8105 76.2617 65.6612L76.0617 65.5451C75.795 65.3903 75.5872 65.2078 75.4383 64.9974C75.2893 64.7871 75.2115 64.5671 75.2048 64.3374C75.1975 64.1058 75.2593 63.882 75.3902 63.666C75.5234 63.4462 75.6946 63.2841 75.9038 63.1798C76.1124 63.0734 76.3464 63.0343 76.6056 63.0626C76.8636 63.0901 77.1279 63.1823 77.3984 63.3393L77.5737 63.441ZM77.1766 63.6969C76.8476 63.506 76.556 63.425 76.3016 63.4539C76.0459 63.482 75.8469 63.6135 75.7046 63.8484C75.5661 64.0769 75.5451 64.3084 75.6418 64.5427C75.7379 64.775 75.941 64.9837 76.2511 65.1687L76.455 65.287C76.7738 65.472 77.0645 65.5517 77.3273 65.5259C77.5896 65.4982 77.7912 65.3682 77.9319 65.1359C78.0735 64.9023 78.0973 64.6717 78.0035 64.4441C77.9084 64.2158 77.7014 64.0065 77.3823 63.8163L77.1766 63.6969Z" fill="#598455"/>
<path fill-rule="evenodd" clip-rule="evenodd" d="M4.31148 46.9475C1.22892 46.0558 -0.387418 48.1329 0.0803779 50.7771C0.242751 51.8118 0.660053 52.7923 1.29625 53.6339C1.93245 54.4755 2.76842 55.1529 3.73198 55.6076C4.53142 55.98 5.21915 55.3002 6.07095 55.1259C6.92276 54.9517 7.81646 55.3002 8.40993 54.6442C9.10658 53.8489 9.5949 52.8995 9.83272 51.8782C10.0705 50.8568 10.0507 49.7942 9.77492 48.782C9.09766 46.1788 6.76218 44.9148 4.31148 46.9475Z" fill="#994A41"/>
<path fill-rule="evenodd" clip-rule="evenodd" d="M4.16846 46.7122L2.46484 45.1168L2.90471 44.3789L4.16846 46.7122Z" fill="#598455"/>
<path fill-rule="evenodd" clip-rule="evenodd" d="M4.26948 46.5208C4.10138 46.0518 4.0828 45.544 4.21621 45.0645C4.34962 44.585 4.62872 44.1565 5.01655 43.8356C5.448 43.4649 5.95137 43.1831 6.49659 43.0071C7.04182 42.831 7.61771 42.7642 8.18988 42.8108C7.87472 43.7274 7.28771 44.5313 6.50372 45.1201C5.80177 45.6494 5.05421 46.118 4.26948 46.5208Z" fill="#598455"/>
<path fill-rule="evenodd" clip-rule="evenodd" d="M87.7292 51.6691C87.2055 54.0605 84.4616 56.2127 81.7945 55.649C79.1273 55.0853 77.518 52.0142 78.0416 49.6433C78.5653 47.2724 80.8658 45.0075 83.7739 46.6234C87.0449 46.391 88.2528 49.2812 87.7292 51.6691Z" fill="#E7A645"/>
<path fill-rule="evenodd" clip-rule="evenodd" d="M83.7843 46.1791C83.8745 45.8004 83.8774 45.4068 83.7929 45.0268C83.7084 44.6469 83.5385 44.2901 83.2956 43.9824C82.6463 43.0976 81.1172 43.0088 81.1172 43.0088C81.1172 43.0088 80.8973 44.693 82.0353 45.53C82.5465 45.8991 83.1516 46.1236 83.7843 46.1791Z" fill="#598455"/>
<path fill-rule="evenodd" clip-rule="evenodd" d="M83.9485 46.2649C84.1018 45.7481 84.4339 45.2995 84.888 44.996C85.3421 44.6925 85.8899 44.5529 86.4376 44.6012C86.4376 46.3844 83.9485 46.2649 83.9485 46.2649Z" fill="#598455"/>
</g>
<defs>
<clipPath id="clip0">
<rect width="87.977" height="86.5672" fill="white"/>
</clipPath>
</defs>
</svg>
